<?xml version="1.0" encoding="iso-8859-1"?>
<!DOCTYPE svg PUBLIC "-//W3C//DTD SVG 1.0//EN"    "http://www.w3.org/TR/2001/REC-SVG-20010904/DTD/svg10.dtd" [
	<!ENTITY ns_svg "http://www.w3.org/2000/svg">
	<!ENTITY ns_xlink "http://www.w3.org/1999/xlink">
]>
<svg  xmlns="&ns_svg;" xmlns:xlink="&ns_xlink;"
	 width="900" height="600" viewBox="0 0 900 600" overflow="visible" enable-background="new 0 0 900 600"
	 xml:space="preserve">
	<g>
		<rect fill="#5B92E5" width="900" height="600"/> 
		<g>
			<path fill="#FFFFFF" d="M569.3857422,394.109375c-10.7744141,2.8852539-22.2714844,3.8129883-32.7353516,7.3813477
				c17.7226563-15.1958008,16.7109375-38.7084961,28.5351563-56.605957
				c3.7666016-5.0673828,6.8798828-10.3789063,11.2705078-15.1875
				c-7.1923828,14.4277344-4.0732422,33.1464844-12.3359375,47.1474609
				c-3.1806641,5.5615234-7.7294922,10.9570313-12.7597656,15.3251953c1.6435547-0.0615234,3.0820313-1.484375,4.5273438-2.4345703
				c13.4208984-13.3925781,30.9541016-17.1376953,45.4716797-28.0185547
				c5.8154297-4.6337891,11.1416016-10.7060547,13.6982422-17.2734375
				C612.3105469,366.6630859,590.2050781,387.4892578,569.3857422,394.109375L569.3857422,394.109375z"/>
			<path fill="#FFFFFF" d="M617.7353516,304.1455078c-6.5664063,9.34375-14.5097656,18.0419922-20.5761719,27.5380859
				c0.6767578-7.5185547,1.5673828-16.7636719-1.3613281-23.8857422
				c-5.0751953-15.3369141-9.5341797-30.9091797-10.9726563-47.7412109l0.1982422-6.4365234
				c3.8193359,17.1894531,20.7050781,29.0058594,19.6396484,48.2871094
				c0.3867188,4.6728516-1.0585938,8.6455078-1.9335938,12.7548828l0.2900391,0.3037109l0.7607422-0.8525391
				c2.5039063-9.4580078,3.7675781-19.4033203,7.6611328-28.2275391
				c5.5332031-12.6982422,12.4423828-25.5136719,9.6269531-40.8457031
				C629.484375,263.1162109,626.9345703,287.2675781,617.7353516,304.1455078L617.7353516,304.1455078z"/>
			<path fill="#FFFFFF" d="M607.3710938,206.7578125c11.0722656,15.0053711,13.4990234,38.9179688,5.4345703,56.1298828
				c-3.0058594,7.2939453-5.1289063,15.0664063-6.3095703,23.1396484c-0.5634766-1.3925781-0.6923828-3.2646484-1.1953125-4.8164063
				c-4.4042969-16.8476563-20.3378906-28.8544922-26.890625-44.7387695
				c-2.078125-5.1943359-3.8496094-10.5615234-4.8320313-16.2001953
				c7.0019531,12.9501953,24.2578125,19.6391602,28.9609375,33.9106445c1.9267578,3.609375,1.8183594,8.1191406,3.0136719,12
				c0.2509766,0,0.5019531-0.1865234,0.5019531-0.4414063c-2.0703125-14.7011719-1.4384766-30.0874023,0.5566406-44.605957
				c-0.1152344-7.8642578-0.8828125-15.4926758-5.2519531-21.5800781
				C604.1611328,201.1875,605.4228516,204.3227539,607.3710938,206.7578125L607.3710938,206.7578125z"/>
			<path fill="#FFFFFF" d="M599.5644531,203.8774414c2.9082031,13.1489258-1.3398438,25.9545898,1.3320313,39.2299805
				l-0.0996094,0.1142578c-7.1533203-14.0664063-22.3398438-20.7050781-32.7890625-31.9633789
				c-6.0556641-6.6806641-8.6884766-14.8227539-10.203125-23.4438477
				c5.9873047,14.4345703,22.1435547,17.6152344,31.4189453,29.7788086
				c3.1035156,2.8041992,4.1162109,6.6889648,6.1171875,9.8691406l0.3271484-0.315918
				c-5.3339844-11.3867188-7.1210938-24.2011719-10.8427734-36.3452148
				c-1.8632813-5.262207-5.5615234-10.4326172-10.5234375-13.7504883
				C586.4775391,179.5390625,597.0302734,192.2504883,599.5644531,203.8774414L599.5644531,203.8774414z"/>
			<path fill="#FFFFFF" d="M567.0117188,173.7216797c9.1699219,8.2070313,13.3173828,18.8334961,15.9951172,29.84375
				l1.5146484,3.496582c-13.3095703-9.5722656-25.4003906-22.4399414-33.8994141-36.0297852L540.2421875,160.53125
				C549.3671875,164.4003906,559.2050781,166.7099609,567.0117188,173.7216797L567.0117188,173.7216797z"/>
			<path fill="#FFFFFF" d="M356.8056641,162.2739258c-9.2001953,8.0654297-15.5810547,18.265625-22.40625,27.7773438
				c-6.1181641,7.5751953-13.9443359,12.5703125-20.8798828,19.0844727
				c3.7441406-7.7617188,3.8808594-17.0332031,9.1914063-24.1630859
				C330.2675781,171.7890625,344.2802734,167.1508789,356.8056641,162.2739258L356.8056641,162.2739258z"/>
			<path fill="#FFFFFF" d="M306.4921875,190.3598633c4.4746094-5.5625,10.1474609-9.4282227,16.53125-11.0605469
				c-12.3955078,8.5151367-11.5888672,23.7749023-15.5185547,36.4604492
				c-1.2529297,4.690918-3.4287109,9.0126953-4.5126953,13.8212891l0.3154297,0.2509766
				c2.0625-5.4360352,5.6875-10.5722656,10.2119141-15.0078125c8.8037109-8.1269531,21.8271484-13.1918945,26.1416016-25.2138672
				c-0.1972656,16.7060547-14.1337891,29.8398438-27.46875,39.2290039
				c-5.4990234,4.8242188-10.8017578,10.3222656-13.8300781,16.5239258
				c-0.296875-4.2148438,0.6230469-8.4467773,0.3232422-12.9619141
				C297.2353516,217.8178711,296.1816406,201.1723633,306.4921875,190.3598633L306.4921875,190.3598633z"/>
			<path fill="#FFFFFF" d="M281.4121094,240.2275391c-0.3730469-14.7783203,5.7607422-26.8417969,14.4042969-37.8530273
				c0.2509766-0.1254883,0.4296875-0.3764648,0.7529297-0.315918c-9.5146484,14.4584961-1.6435547,32.6704102-2.0771484,49.1103516
				l-1.2548828,16.8320313c0.1865234,0.1220703,0.1865234,0.6279297,0.6279297,0.4335938
				c0.5625-1.8759766,0.6845703-3.8808594,1.0605469-5.8105469c2.2412109-13.5771484,14.0322266-23.2109375,24.3310547-32.59375
				c2.1992188-2.4541016,4.1435547-4.9458008,5.2734375-7.8256836c-0.8408203,6.7602539-2.9599609,13.5786133-5.7646484,19.8305664
				c-8.015625,15.6318359-22.8232422,28.4580078-25.5283203,46.3544922
				C291.9248047,271.2392578,280.2480469,258.4169922,281.4121094,240.2275391L281.4121094,240.2275391z"/>
			<path fill="#FFFFFF" d="M274.2138672,261.2431641c1.0654297-4.6220703,1.8798828-9.4052734,3.8916016-13.6464844
				c-3.8115234,19.5371094,9.3291016,33.6142578,13.6396484,50.5488281
				c1.8037109,6.3339844,2.2451172,13.1367188,4.8242188,19.0800781c0.2402344,0.1298828,0.4492188-0.1210938,0.5976563-0.3115234
				c-6.4179688-17.9892578,2.8466797-34.7060547,12.15625-48.7910156c2.2636719-3.8164063,3.5683594-8.0664063,4.6943359-12.453125
				c0.9892578,8.1416016-1.0693359,17.5175781-2.2519531,25.9707031
				c-2.2636719,10.7558594-5.6425781,20.9560547-8.5839844,31.3925781
				c-1.9355469,6.5214844-1.4267578,13.8789063-0.4326172,20.7119141L301.8164063,333
				c-6.8251953-12.5859375-20.3398438-22.4023438-24.3535156-36.1523438
				C274.1601563,285.8857422,271.9648438,273.1875,274.2138672,261.2431641L274.2138672,261.2431641z"/>
			<path fill="#FFFFFF" d="M273.5976563,299.4013672c1.5029297,20.7080078,23.7714844,31.6503906,34.09375,48.7939453
				c2.4423828,3.5078125,4.5615234,7.3886719,7.8251953,10.3251953c-0.5097656-2.2060547-2.5683594-4.0625-3.3242188-6.3222656
				c-3.6113281-7.1904297-4.9277344-15.7587891-4.0595703-24.4492188c1-10.5771484,5.4365234-20.3925781,3.7431641-31.5175781
				c9.0703125,19.5566406,6.3154297,43.9667969,11.3867188,65.1582031c1.328125,4.6347656,4.0107422,8.7734375,5.7685547,13.203125
				c-18.6357422-12.6923828-44.046875-24.7685547-52.3144531-48.0302734
				C273.2324219,318.5419922,272.84375,308.6123047,273.5976563,299.4013672L273.5976563,299.4013672z"/>
			<path fill="#FFFFFF" d="M284.7294922,346.9550781c10.390625,23.5058594,36.4140625,25.453125,53.8623047,39.7666016
				c3.2109375,2.8457031,6.5751953,5.265625,10.2001953,6.9541016l0.1865234-0.1894531
				c-4.0058594-3.6220703-8.6396484-7.7470703-11.4443359-12.4414063
				c-10.2119141-14.1992188-6.6201172-34.0898438-14.2714844-49.3613281
				C330.2148438,340,336.5371094,348.6445313,340.734375,358.0791016
				c6.2431641,15.4013672,8.6289063,32.796875,23.0751953,44.4389648
				c-15.6337891-5.1523438-33.9492188-3.7128906-47.7480469-13.3393555
				C300.9951172,379.9189453,287.5488281,364.2128906,284.7294922,346.9550781L284.7294922,346.9550781z"/>
			<path fill="#FFFFFF" d="M311.4345703,390.8066406c16.6601563,18.9477539,43.8828125,12.6254883,66.0751953,17.5844727
				c3.1347656,0.4277344,6.0039063,1.6835938,9.3261719,1.1738281c-2.6455078-1.6738281-6.3164063-1.4921875-9.2041016-3.0136719
				c-17.3955078-6.1113281-19.9472656-24.9438477-29.390625-37.6430664
				c12.0644531,8.0117188,22.2070313,18.8173828,33.3369141,29.2875977c8,7.0078125,17.6298828,10.2421875,27.7763672,12.3046875
				c-2.4384766,0.890625-5.6347656,0.6464844-8.2519531,1.3320313c-18.2285156,4.4824219-38.4804688,11.8085938-57.8115234,5.25
				C330.7236328,413.1254883,317.7578125,403.1879883,311.4345703,390.8066406L311.4345703,390.8066406z"/>
			<path fill="#FFFFFF" d="M537.5566406,434.9731445c-18.7734375,7.0058594-38.3662109-0.3203125-53.0292969-11.4394531
				c-5.9365234-3.7734375-11.1699219-9.2070313-18.8486328-8.7265625c-2.7851563-0.0527344-5.4707031,0.0839844-7.8378906,0.7675781
				c14.2451172,6.6289063,27.4775391,15.7675781,39.5761719,27.4550781
				c-2.0390625,2.328125-4.6796875,4.5058594-7.1669922,6.5136719c-11.6591797-12.5625-24.5712891-24.6542969-39.0283203-31.7167969
				c-2.8310547,0.3671875-5.5244141,2.0703125-8.0771484,3.4414063
				c-11.7695313,7.4414063-23.4072266,17.0136719-32.1572266,28.7324219l-7.5185547-6.2089844
				c12-12.1386719,25.2734375-21.5878906,39.7939453-28.3378906c-14.2685547-4.5195313-23.5820313,7.4335938-34.4130859,13.5136719
				c-12.6210938,8.8125-30.7724609,12.9511719-46.0253906,6.8710938c-8.203125-3.1113281-16.1503906-7.6933594-22.0898438-15.140625
				c12.0039063,8.2695313,29.8818359,9.1367188,43.5332031,3.765625
				c18.3183594-7.9453125,37.3535156-18.0175781,59.4365234-13.2011719
				c3.4462891,0.0605469,6.7949219,3.4921875,10.0507813,0.5703125c16.4130859-4.2617188,34.9951172-1.3320313,49.1259766,6.1699219
				l14.5644531,5.8378906c13.5371094,5.0058594,31.0390625,3.6210938,42.6425781-4.6269531
				C554.1220703,426.6391602,545.9726563,431.9594727,537.5566406,434.9731445L537.5566406,434.9731445z"/>
			<path fill="#FFFFFF" d="M557.6748047,415.574707c-21.078125,7.9589844-42.2832031-1.8105469-62.4794922-5.0742188
				l-3.8886719-0.4941406v-0.1230469c9.6572266-2.1914063,19.03125-5.0664063,26.7177734-12.0058594
				c11.3212891-10.8823242,21.3955078-22.0834961,33.9677734-30.6586914
				c-9.3232422,11.9541016-10.3115234,28.9692383-25.7128906,36.6547852
				c-3.8115234,2.4941406-8.6220703,2.9355469-12.5556641,4.8242188c5.609375,0.1210938,10.7451172-1.8886719,16.2998047-2.4511719
				c20.6523438-3.2421875,44.2783203,0.0839844,58.7666016-17.5092773
				C583.4111328,400.996582,569.9404297,411.262207,557.6748047,415.574707L557.6748047,415.574707z"/>
			<path fill="#FFFFFF" d="M595.9726563,356.2685547c-8.3242188,5.4482422-16.7617188,10.5009766-24.7607422,16.6953125v-0.7607422
				c12.2519531-20.3623047,6.2626953-48.3349609,13.8115234-70.7441406l2.8154297-7.5068359
				c-1.5751953,13.9599609,4.4882813,25.7851563,4.0625,39.7929688c-0.4257813,8.4619141-3.1875,15.9648438-7.6308594,22.7216797
				h0.7529297c6.0029297-7.8837891,10.6904297-16.2685547,17.7060547-23.7783203
				c10.8896484-10.5009766,21.9609375-21.2685547,23.390625-35.8408203
				C629.8183594,321.1748047,616.1679688,342.4960938,595.9726563,356.2685547L595.9726563,356.2685547z"/>
		</g>
		<g>
			<polygon fill-rule="evenodd" clip-rule="evenodd" fill="#FFFFFF" points="448.1118164,303.2524414 451.8886719,303.2524414 
				451.8886719,398.074707 448.1118164,398.074707 448.1118164,303.2524414 "/>
			<polygon fill-rule="evenodd" clip-rule="evenodd" fill="#FFFFFF" points="427.609375,293.9394531 430.2773438,296.6108398 
				363.1757813,363.6098633 360.5078125,360.9365234 427.609375,293.9394531 "/>
			<polygon fill-rule="evenodd" clip-rule="evenodd" fill="#FFFFFF" points="421.1953125,274.1860352 421.1894531,277.9624023 
				326.3671875,277.8491211 326.3710938,274.0722656 421.1953125,274.1860352 "/>
			<polygon fill-rule="evenodd" clip-rule="evenodd" fill="#FFFFFF" points="430.1977539,255.8979492 427.5258789,258.5673828 
				360.4853516,191.5078125 363.1567383,188.8383789 430.1977539,255.8979492 "/>
			<polygon fill-rule="evenodd" clip-rule="evenodd" fill="#FFFFFF" points="451.847168,248.1098633 448.0703125,248.1069336 
				448.1572266,153.2827148 451.934082,153.2866211 451.847168,248.1098633 "/>
			<polygon fill-rule="evenodd" clip-rule="evenodd" fill="#FFFFFF" points="470.824707,257.1552734 468.1567383,254.4814453 
				535.296875,187.5214844 537.9648438,190.1948242 470.824707,257.1552734 "/>
			<polygon fill-rule="evenodd" clip-rule="evenodd" fill="#FFFFFF" points="478.1474609,278.2592773 478.1435547,274.4829102 
				572.9648438,274.3637695 572.9716797,278.1401367 478.1474609,278.2592773 "/>
			<polygon fill-rule="evenodd" clip-rule="evenodd" fill="#FFFFFF" points="467.1992188,297.559082 469.8671875,294.8852539 
				536.9736328,361.8789063 534.3056641,364.5522461 467.1992188,297.559082 "/>
			<path fill-rule="evenodd" clip-rule="evenodd" fill="#FFFFFF" d="M485.3632813,181.1835938
				c52.2265625,19.5219727,78.7685547,77.75,59.2460938,129.9736328s-77.7504883,78.7661133-129.972168,59.2436523
				c-52.2255859-19.5209961-78.7641602-77.7480469-59.2456055-129.9726563
				C374.9145508,188.2036133,433.1416016,161.6630859,485.3632813,181.1835938L485.3632813,181.1835938z M483.8349609,185.2783203
				c49.9628906,18.6767578,75.3554688,74.3847656,56.6806641,124.3481445
				c-18.6757813,49.9648438-74.387207,75.3564453-124.3496094,56.6796875
				c-49.9628906-18.6748047-75.3544922-74.3837891-56.6796875-124.3476563
				C378.1630859,191.9951172,433.8720703,166.6025391,483.8349609,185.2783203L483.8349609,185.2783203z"/>
			<path fill-rule="evenodd" clip-rule="evenodd" fill="#FFFFFF" d="M477.2617188,202.8613281
				c40.2607422,15.0488281,60.7177734,59.9350586,45.671875,100.1938477
				c-15.0498047,40.2583008-59.9384766,60.7177734-100.1943359,45.6699219
				c-40.2563477-15.0478516-60.7177734-59.9360352-45.6699219-100.1943359
				C392.1171875,208.2729492,437.0053711,187.8129883,477.2617188,202.8613281L477.2617188,202.8613281z M475.7255859,206.9794922
				c37.9824219,14.1982422,57.2890625,56.5522461,43.0908203,94.5375977
				c-14.1982422,37.9858398-56.5551758,57.2910156-94.5371094,43.0908203
				c-37.9858398-14.1982422-57.2929688-56.5527344-43.0927734-94.5375977
				C395.3867188,212.0844727,437.7392578,192.7792969,475.7255859,206.9794922L475.7255859,206.9794922z"/>
			<path fill-rule="evenodd" clip-rule="evenodd" fill="#FFFFFF" d="M469.4018555,223.8862305
				c28.6547852,10.7104492,43.2163086,42.6572266,32.5073242,71.3095703
				c-10.7138672,28.6518555-42.6601563,43.215332-71.3105469,32.5039063
				c-28.6538086-10.7109375-43.215332-42.6572266-32.5039063-71.309082
				C408.8056641,227.7387695,440.7519531,213.1762695,469.4018555,223.8862305L469.4018555,223.8862305z M467.9941406,227.6547852
				c26.5732422,9.9331055,40.0791016,39.5605469,30.1455078,66.1333008
				c-9.9345703,26.5722656-39.5605469,40.0761719-66.1333008,30.1430664
				c-26.5722656-9.9316406-40.0761719-39.5600586-30.1445313-66.1328125
				C411.7949219,231.2270508,441.4213867,217.722168,467.9941406,227.6547852L467.9941406,227.6547852z"/>
			<path fill-rule="evenodd" clip-rule="evenodd" fill="#FFFFFF" d="M460.5620117,247.5366211
				c15.5981445,5.8305664,23.5258789,23.2207031,17.6948242,38.8193359
				c-5.8310547,15.5961914-23.2197266,23.5244141-38.8183594,17.6928711
				c-15.5981445-5.8295898-23.5244141-23.2197266-17.6948242-38.8183594
				C427.5751953,249.6333008,444.9672852,241.7060547,460.5620117,247.5366211L460.5620117,247.5366211z M459.0371094,251.6132813
				c13.3505859,4.9892578,20.1318359,19.871582,15.1445313,33.2192383
				c-4.9916992,13.347168-19.8710938,20.1298828-33.2177734,15.140625
				c-13.3491211-4.9892578-20.1318359-19.8706055-15.1445313-33.21875
				C430.8105469,253.4067383,445.6938477,246.6235352,459.0371094,251.6132813L459.0371094,251.6132813z"/>
			<path fill-rule="evenodd" clip-rule="evenodd" fill="#FFFFFF" d="M508.9130859,166.2070313
				c61.0849609,33.6157227,84.2705078,109.9931641,51.7490234,170.4824219
				c-32.5175781,60.4916992-108.4897461,82.3041992-169.5742188,48.6889648
				c-61.0839844-33.6147461-84.2700195-109.9931641-51.7485352-170.4833984
				C371.8588867,154.4038086,447.828125,132.5917969,508.9130859,166.2070313L508.9130859,166.2070313z M506.7753906,170.1870117
				c58.8671875,32.3945313,81.2089844,105.9970703,49.8681641,164.2924805
				c-31.3369141,58.293457-104.5507813,79.3149414-163.4155273,46.9199219
				c-58.8686523-32.3964844-81.2104492-105.9990234-49.8701172-164.293457
				C374.6948242,158.8115234,447.9077148,137.7915039,506.7753906,170.1870117L506.7753906,170.1870117z"/>
			<path fill="#FFFFFF" d="M523.7363281,334.3999023c0.0712891,0.6489258-0.1513672,2.2460938,0.1513672,2.612793
				c0.3134766,0.4975586,1.4833984,0.3916016,1.9902344,0.2158203c1.3847656-0.5205078,2.7626953-2.3500977,3.4023438-3.7216797
				c0.4501953-0.6962891,0.7529297-1.5117188,0.6542969-2.4238281l-0.96875-2.9345703
				c-0.2421875-1.0292969-0.5673828-2.8383789-1.6650391-3.265625c0.1025391-0.2724609,0.4501953-0.6982422,0.4091797-1.0883789
				c-0.2539063-1.159668-2.1914063-0.8549805-2.8837891-0.003418c-0.3486328,0.4257813-0.25,1.3354492-0.3251953,1.8671875
				c-0.0195313,1.0541992-0.3144531,3.1826172-0.734375,4.1401367c-0.4199219,0.9555664-1.5966797,2.2441406-1.6123047,3.2978516
				C522.2373047,333.8754883,523.0742188,334.3261719,523.7363281,334.3999023L523.7363281,334.3999023z M459.2563477,326.2583008
				l0.3442383,0.7568359c0.0151367,0.1303711,0.1704102,0.378418,0.3027344,0.3671875
				c0.8779297,0.8417969,2.1079102-1.1088867,0.6396484-1.3701172c-0.1323242,0.0112305-0.4047852-0.0966797-0.5219727,0.0454102
				C459.7636719,326.0820313,459.5024414,326.1049805,459.2563477,326.2583008L459.2563477,326.2583008z M460.2290039,324.3320313
				c-0.5942383,0.5771484-0.8100586,0.9916992,0.1552734,1.4301758L460.2290039,324.3320313L460.2290039,324.3320313z
				 M444.5698242,312.8623047c-0.9536133,0.8720703-0.8813477,0.3422852-1.3696289,0.6489258
				c-0.3632813,0.2929688-0.0605469,0.6601563-0.3935547,1.2163086c-0.1025391,0.2724609-0.4804688,0.4375-0.4501953,0.6982422
				c-0.0874023,0.4013672,0.3291016,0.6264648,0.7338867,0.7211914c0.5336914,0.0830078,2.0927734-0.0551758,2.5805664-0.3613281
				c0.480957-0.4375,0.2915039-0.9462891,0.5112305-1.3608398c0.1171875-0.1416016,0.3481445-0.425293,0.465332-0.5673828
				C446.7041016,313.1953125,445.3076172,312.4003906,444.5698242,312.8623047L444.5698242,312.8623047z M482.1699219,308.8320313
				l0.1396484,1.2998047l-0.1513672,1.0654297c1.4150391-0.2592773,2.2861328-0.7304688,3.5419922-1.237793
				c0.375-0.1645508,1.1240234-0.4956055,1.4150391-0.2587891c0.4169922,0.2270508,0.1972656,0.6391602,0.0947266,0.9116211
				c-0.2041016,0.5429688-1.0136719,1.5366211-1.3623047,1.9624023c-1.0556641,1.1445313-2.6142578,1.284668-3.9316406,2.4541016
				c-0.7080078,0.7207031-0.8964844,1.394043-1.6083984,2.1152344c-0.7070313,0.71875-1.2148438,0.8969727-1.578125,1.1918945
				c-0.3476563,0.4257813-0.0566406,0.6621094-0.7939453,1.1220703l0.4199219-0.9555664
				c-0.4013672-0.0966797-0.9238281-0.0493164-1.2265625-0.4179688c-0.1699219-0.3764648-0.2119141-0.7685547-0.125-1.1694336
				c0.1787109-0.8041992,0.3408203-2.9213867,0.8066406-3.4892578c0.1171875-0.1416016,1.1279297-0.4956055,1.5019531-0.6601563
				l-0.1738281,0.8041992c0.3896484-0.0341797,1.0371094-0.0927734,1.2822266-0.2460938
				c0.6367188-0.1889648,1.2753906-1.5610352,1.6083984-2.1152344l-1.7626953,0.6831055
				C480.5732422,311.0761719,481.4433594,309.4223633,482.1699219,308.8320313L482.1699219,308.8320313z M447.3134766,312.746582
				c-0.2646484,1.2075195,0.4731445,0.7456055,0.9194336,1.2319336c0.2875977,0.2363281,0.3295898,0.6264648,0.3710938,1.0180664
				l-1.0253906,0.2231445l-0.4506836,0.6962891l-0.5791016,0.7094727l1.7597656,0.4995117
				c-0.8813477,0.3408203-1.4150391,0.2573242-1.9790039,1.0976563l2.2060547-0.1987305
				c1.4418945,0.0019531,2.5244141,0.2988281,3.8828125-0.480957l-0.2875977-0.2363281l0.3935547-1.2182617l-0.9799805-0.5678711
				l-0.3447266-0.7568359l-1.6499023-1.9545898l-0.5483398-0.2138672c0.465332-0.5673828,1.4038086-1.5722656,0.0639648-1.8447266
				l-0.6621094-0.0717773l0.5791016-0.7094727c-0.7949219-0.0585938-1.4570313-0.1308594-2.0512695,0.4482422
				C446.2348633,311.2670898,446.2158203,312.3193359,447.3134766,312.746582L447.3134766,312.746582z M446.5454102,295.8691406
				l-0.0302734,0.9213867l-0.3027344-0.3666992L446.25,297.9960938c0.230957,0.9003906,1.2412109,0.546875,1.472168,0.2626953
				c0.2460938-0.152832,0.3178711-0.6865234,0.2915039-0.9458008s-0.1855469-0.5087891-0.3291016-0.6264648
				c-0.2763672-0.1079102-0.4052734-0.0961914-0.6660156-0.0737305l-0.0834961-0.7792969L446.5454102,295.8691406
				L446.5454102,295.8691406z M339.5117188,304.1586914c-0.0512695,1.9750977,0.46875,1.9277344,0.909668,3.5966797
				c0.2290039,0.8989258-0.1323242,1.1938477,0.5830078,2.96875c0.3442383,0.7587891,0.5561523,1.5268555,1.3774414,1.8466797
				c-0.2363281-2.2119141-0.5073242-3.5004883-1.2490234-5.5361328c-0.5297852-1.2661133-0.9345703-1.3603516-1.3623047-2.9008789
				L339.5117188,304.1586914L339.5117188,304.1586914z M518.9453125,282.5415039
				c-0.6201172,0.3178711-0.8398438,0.7319336-0.7685547,1.3808594c-0.0605469,0.6640625,0.5146484,1.137207,1.1503906,0.9482422
				C520.2089844,284.5297852,520.3603516,282.2822266,518.9453125,282.5415039L518.9453125,282.5415039z M396.168457,282.2573242
				c-0.3198242,0.6870117-0.3803711,1.3491211,0.3251953,1.8110352
				C396.4238281,283.4194336,396.612793,282.7436523,396.168457,282.2573242L396.168457,282.2573242z M434.5288086,282.8896484
				l0.4331055,0.3554688c0.9536133-0.8740234,1.1582031-1.4189453,1.8544922-2.2685547
				c0.5786133-0.7094727,0.96875-0.7436523,1.3300781-1.0385742c0.2304688-0.2841797,0.2021484-0.5449219,0.2890625-0.9462891
				c0.2045898-0.5449219,0.5810547-0.7094727,0.484375-1.6196289c0.0458984-0.7924805-0.4707031-1.9282227-1.3657227-1.7167969
				l-0.2006836-0.6386719c-0.3896484,0.034668-1.0253906,0.2231445-1.3867188,0.5175781
				c-0.3613281,0.2958984-0.1762695,0.8046875-0.652832,1.2416992c-0.5791016,0.7080078-1.5893555,1.0615234-1.8354492,1.2148438
				c-0.3764648,0.1665039-0.2041016,0.5449219-0.8134766,0.9936523c-0.8515625,0.6015625-1.4135742,0.2573242-1.9189453,0.4350586
				c-0.6357422,0.1875-1.5776367,1.1918945-2.0546875,1.6289063c-0.6962891,0.8496094-0.8984375,1.3945313-1.1899414,2.3408203
				c-0.1020508,0.2705078-0.3198242,0.6845703-0.1625977,0.9345703c0.1567383,0.2480469,0.546875,0.2119141,0.7944336,0.0585938
				c0.5053711-0.1757813,1.6176758-0.800293,2.0229492-0.7055664c0.3876953-0.0361328,0.5463867,0.2133789,0.8208008,0.3198242
				c0.4033203,0.0942383,0.6625977,0.0717773,0.9365234,0.1777344c0.2724609,0.1079102,0.5751953,0.4746094,0.862793,0.7114258
				c0.690918,0.3310547,1.387207-0.5185547,1.5913086-1.0615234
				C434.4697266,283.5517578,434.5703125,283.2792969,434.5288086,282.8896484L434.5288086,282.8896484z M435.2836914,272.8369141
				l0.0151367,0.1303711l-0.1459961-0.1181641L435.2836914,272.8369141L435.2836914,272.8369141z M436.434082,273.784668
				c0.3442383,0.7578125,1.6118164,1.5629883,2.3310547,2.15625c0.2456055-0.1533203,0.3613281-0.2954102,0.4633789-0.5668945
				c0.3198242-0.6860352,0.1796875-1.987793-0.5126953-2.3198242c-0.4160156-0.2250977-0.9233398-0.0478516-1.2978516,0.1166992
				c-0.0151367-0.1298828-0.1855469-0.5083008-0.3291016-0.6274414
				C436.0668945,271.5844727,434.7880859,274.3266602,436.434082,273.784668L436.434082,273.784668z M431.0019531,272.0395508
				c0.8759766,0.8408203,0.8911133,0.9702148,2.0605469,0.8652344c-0.1782227,0.8041992-1.21875,2.0805664-2.0703125,1.5004883
				c-0.5600586-0.3442383-0.6166992-0.8647461-0.8891602-0.9716797c-0.4179688-0.2250977-0.4501953,0.6972656-0.6811523,0.9804688
				c-0.5527344,0.9692383-1.4755859,0.9213867-1.5664063,2.5058594l0.4916992-0.3085938
				c0.4995117,1.0068359,1.4267578-0.1264648,2.0493164-0.4453125c-0.1157227,0.1420898-0.3481445,0.4267578-0.4487305,0.6972656
				c-0.0908203,0.402832,0.3427734,0.7587891,0.7192383,0.5922852c0.3745117-0.1650391,0.824707-0.862793,1.1845703-1.1582031
				c0.3632813-0.2939453,0.4916992-0.3056641,0.8681641-0.472168c0.3613281-0.2939453,0.8383789-0.730957,1.2016602-1.0263672
				c1.0859375-0.8852539,1.140625-0.3652344,1.5209961-1.7133789c-0.0302734-0.2597656,0.0869141-0.4018555,0.0585938-0.6621094
				c-0.5166016-1.1362305-2.3779297-0.1806641-2.5239258-0.2978516l-0.8081055-0.1914063
				C431.8964844,271.8271484,431.3896484,272.0043945,431.0019531,272.0395508L431.0019531,272.0395508z M437.003418,271.7641602
				l-0.6489258,0.0576172l0.1723633,0.378418c0.7661133-0.199707,1.284668-0.2470703,1.3168945-1.1694336
				C437.1943359,271.0893555,437.0639648,271.1005859,437.003418,271.7641602L437.003418,271.7641602z M396.0947266,274.2509766
				l-0.6020508,2.9453125l0.269043,1.2885742l0.5410156,2.5786133c0.3330078-0.5541992,0.9306641-2.315918,0.9912109-2.9780273
				l0.1479492-1.0654297c0.0454102-0.7915039,0.1474609-1.0629883-0.1967773-1.8208008l-0.840332,0.7319336l-0.0512695-1.7026367
				L396.0947266,274.2509766L396.0947266,274.2509766z M438.3486328,270.8540039
				c-0.0830078-0.7807617,0.0605469-0.6616211,0.7226563-0.590332l-0.0092773-1.3129883
				c-0.3764648,0.1650391-0.8950195,0.2124023-1.2583008,0.5068359
				C437.2246094,270.1660156,437.296875,270.8178711,438.3486328,270.8540039L438.3486328,270.8540039z M434.4887695,269.0991211
				l0.4448242,0.4853516c0.8950195-0.2119141,1.1826172,0.0244141,1.9902344,0.215332l-0.315918-0.4975586l0.3330078-0.5551758
				c0.7797852-0.0688477,0.840332-0.7324219,0.5112305-1.359375c-0.144043-0.1186523-0.418457-0.2250977-0.5620117-0.3442383
				c-1.3984375-0.7929688-1.5307617,0.4008789-1.8637695,0.9560547L434.4887695,269.0991211L434.4887695,269.0991211z
				 M437.8510742,268.6655273c0.2592773-0.0234375,0.5205078-0.0463867,0.7661133-0.1992188
				c0.4770508-0.4375,0.2084961-1.7275391-0.2119141-1.9521484c-0.402832-0.0952148-0.6201172,0.3178711-0.5917969,0.578125
				l-0.0888672,0.4033203l0.0698242,0.6499023L437.8510742,268.6655273L437.8510742,268.6655273z M396.1020508,271.8862305
				c0.4633789-0.5668945,0.6245117-1.5014648,0.6850586-2.1640625
				C395.9204102,270.1953125,396.0039063,270.9750977,396.1020508,271.8862305L396.1020508,271.8862305z M400.7036133,263.4594727
				c0.125,1.1713867-0.0224609,2.2353516-0.4311523,3.3227539c-0.5224609,1.2299805-1.7827148,2.9194336-2.0473633,4.1245117
				l-0.3007813-0.3671875c-0.565918,0.8393555-0.6303711,2.6850586-0.2705078,3.5717773
				c0.7075195-0.7202148,0.8701172-1.6547852,1.3051758-2.4819336c0.8574219-1.7841797,2.0019531-3.331543,2.440918-5.3422852
				c0.0756836-0.5322266,0.1816406-1.9873047-0.1362305-2.4838867
				C401.1064453,263.5541992,400.9760742,263.5664063,400.7036133,263.4594727L400.7036133,263.4594727z M518.9677734,266.9052734
				c0.6816406-0.9814453,0.8632813-2.9667969,1.1240234-4.1743164c0.6171875-2.8134766,1.9189453-4.1123047,1.5400391-7.6259766
				c-0.0830078-0.7802734-0.3818359-2.3300781-1.3164063-2.5097656c-1.4570313-0.1313477-0.859375,1.7851563-0.9462891,2.1870117
				c0.0419922,0.3911133-0.0605469,0.6625977-0.1630859,0.9350586c-0.6386719,1.3706055-0.3398438,2.9204102-0.3173828,4.3632813
				l-0.2763672,4.7543945L518.9677734,266.9052734L518.9677734,266.9052734z M497.9355469,244.487793
				c0.0263672,0.2597656,0.1699219,0.3789063,0.3291016,0.6269531c0.1435547,0.1191406,0.2880859,0.2373047,0.4316406,0.355957
				c0.8359375,0.4501953,1.2714844-0.3764648,0.953125-0.8745117c-0.1542969-0.2485352-0.6884766-0.3320313-0.9492188-0.3081055
				C498.4423828,244.3115234,498.1816406,244.3344727,497.9355469,244.487793L497.9355469,244.487793z M517.3632813,242.21875
				c0.125,1.1713867,0.5947266,3.1005859,1.0976563,4.105957l1.1464844,2.1303711l1.3544922,4.0825195
				c0.6962891-0.8505859,0.3261719-1.8686523,0.0986328-2.7675781c-0.5859375-1.7866211-1.4306641-3.550293-2.1337891-5.1943359
				C518.4384766,243.699707,518.0830078,242.8110352,517.3632813,242.21875L517.3632813,242.21875z M510.1845703,240.1044922
				l-0.1054688,1.4541016l-1.7753906-0.6293945c-0.0292969,0.9238281,0.3828125,2.331543,1.1171875,3.0532227l1.4257813,1.0546875
				c1.1503906,0.9482422,2.3164063,2.0263672,3.3496094,3.1152344c0.9082031,1.1015625,0.9492188,1.4921875,1.2636719,1.9887695
				c0.2880859,0.2363281,0.5751953,0.4741211,0.9501953,0.3085938c0.2460938-0.1533203,0.3066406-0.8154297,0.4082031-1.0878906
				l0.4355469-0.8271484c0.1894531-0.6733398-0.3105469-1.6791992-0.6396484-2.3071289l-0.859375-1.8930664
				c-0.359375-0.8876953-0.5751953-1.6567383-1.1767578-2.390625c-1.0214844-0.9594727-1.8007813-0.8896484-2.8798828-1.1875
				L510.1845703,240.1044922L510.1845703,240.1044922z M474.0527344,241.9008789
				c-0.0761719,0.5327148-0.1210938,1.3256836-0.7568359,1.5136719c-0.1289063,0.0117188-0.6621094-0.0717773-0.8066406-0.190918
				l-0.4951172,1.4902344c-0.2197266,0.4130859-0.628418,1.5009766-0.5830078,1.8920898
				c-0.0605469,0.6611328,0.8476563,0.5795898,1.3095703,0.0131836c0.4804688-0.4370117,0.5410156-1.0996094,0.8740234-1.6547852
				c0.5371094-1.0991211,1.5322266-1.5834961,1.6533203-2.9072266L474.0527344,241.9008789L474.0527344,241.9008789z
				 M514.3056641,236.9750977c0.3867188,1.1484375,0.6582031,1.2553711,1.2910156,2.2495117
				c0.3291016,0.6274414,0.2421875,1.0292969,1.0058594,0.8295898
				C516.1455078,239.4384766,514.8701172,237.3193359,514.3056641,236.9750977L514.3056641,236.9750977z M459.8466797,243.9633789
				c-1.4570313-0.1313477-0.4956055,1.4902344-0.6850586,2.1635742c-0.3178711,0.6860352-1.7783203,1.7368164-2.4858398,1.2744141
				c-0.375,0.1655273-0.7646484,0.2006836-1.1694336,0.1049805c-0.4013672-0.0957031-0.6889648-0.3320313-1.0786133-0.296875
				l-2.0698242,1.4995117c-0.3632813,0.2949219-0.8515625,0.6015625-1.3735352,0.6479492
				c-0.3862305,0.0351563-0.9082031,0.0810547-1.1391602,0.3662109c-0.3632813,0.2939453-0.019043,1.0517578,0.1552734,1.4301758
				l0.6166992,0.8647461c-1.2714844,0.3764648-1.1733398,1.2866211-1.0483398,2.4589844
				c0.0717773,0.6499023,0.3217773,2.9921875,0.5073242,3.5009766c0.2001953,0.6396484,1.0517578,1.2197266,1.7255859,1.4208984
				c0.4199219,0.2265625,1.0820313,0.2973633,1.4716797,0.2631836l0.0908203-1.5854492l0.3901367-0.0341797l0.4008789,1.2783203
				c0.1289063-0.0126953,0.3896484-0.0351563,0.5185547-0.0473633l1.6157227,0.3813477
				c0.144043,0.1181641,0.144043,0.1181641,0.2875977,0.2363281c0.1704102,0.378418-0.1474609,1.0644531-0.105957,1.4550781
				c0.2270508,0.8984375,1.1655273,1.0776367,1.9453125,1.0073242c-0.019043,1.0522461,0.0830078,0.7807617,0.0224609,1.4428711
				c0.0717773,0.6508789-0.3178711,0.6860352,0.484375,2.0585938c0.1591797,0.2480469,0.4882813,0.8759766,0.8779297,0.8408203
				c0.3896484-0.034668,1.199707-1.0273438,2.0664063-1.4990234c0.2001953,0.6381836,0.215332,0.769043,0.7753906,1.1132813
				l-0.1889648,0.6733398l1.4755859-0.9204102c-0.4389648,2.0097656-1.2749023,1.559082-2.1870117,2.8232422
				c-0.3217773,0.6865234-0.1210938,1.3251953-0.3105469,1.9990234l0.144043,0.1181641l0.4916992-0.3066406l0.375-0.1645508
				c1.1538086-0.2358398,0.2573242,1.1586914,0.2836914,1.4189453c0.0415039,0.3911133,0.3178711,0.496582,0.590332,0.6044922
				l-0.609375,0.4477539l0.359375,0.8881836l-2.3383789,0.2099609c-1.1542969,0.2348633-2.1118164,1.1088867-3.0805664,1.8525391
				l0.0302734,0.2602539l0.4013672,0.0952148l-2.2402344,1.1210938c0.6772461,0.2006836,1.559082-0.1401367,2.2099609-0.1987305
				c0.6357422-0.1889648,0.5185547-0.0454102,1.2866211-0.2475586l0.4160156,0.2270508l-0.0756836,0.5317383l2.8535156,0.925293
				c0.6772461,0.2021484,1.1694336-0.1044922,1.5893555,0.1210938c0.5600586,0.3442383,0.3706055,1.0175781,1.309082,1.1953125
				c1.0786133,0.2973633,1.934082-0.3041992,2.8271484-0.5161133l-1.0561523,1.1464844l0.4882813,0.8759766l1.2714844-0.3764648
				c-0.9423828,1.0029297-0.8969727,0.2119141-2.7133789,0.3745117c0.4165039,0.2250977,1.6538086,0.7700195,1.9301758,0.8779297
				c0.6772461,0.2026367,1.0366211-0.0947266,1.9902344,0.2158203c0.8061523,0.1889648,1.7861328,0.7587891,2.0473633-0.4487305
				c0.1586914,0.25,0.3178711,0.4980469,0.4614258,0.6171875c0.4169922,0.2250977,0.6777344,0.2021484,1.0830078,0.296875
				c0.5332031,0.0834961,1.796875,0.8891602,1.7402344,1.5517578c-0.1171875,0.1416016-0.234375,0.2836914-0.3476563,0.4257813
				c-0.1748047-0.3803711-0.3447266-0.7568359-0.6474609-1.1240234c-0.7451172-0.8535156-1.8886719-0.4882813-2.8266602-0.6679688
				l-1.8886719-0.4863281l-1.456543-0.1323242c-0.7910156-0.0605469-1.237793-0.5449219-2.0170898-0.4750977
				c-0.2612305,0.0229492-0.6357422,0.1875-0.6054688,0.4482422c0.0263672,0.2592773,0.3139648,0.4980469,0.4580078,0.6152344
				c0.8359375,0.4501953,0.5332031,0.0830078,1.8012695,0.8891602c0.7036133,0.4619141,0.949707,0.3085938,1.6269531,0.5107422
				l0.6923828,0.3330078c0.5336914,0.0834961,0.6357422-0.1889648,1.1694336-0.105957
				c0.2573242-0.0224609,0.7910156,0.0605469,1.0668945,0.168457l-2.2548828,0.9897461l-1.7294922-0.2382813
				c0.3442383,0.7568359,0.4882813,0.8759766-0.0908203,1.5834961l-0.3178711-0.4956055
				c-0.3481445,0.4238281-0.3178711,0.6850586-0.6660156,1.1103516l-0.5791016,0.7080078
				c-0.1020508,0.2724609-0.4501953,0.6982422-0.7114258,0.7207031c-0.3896484,0.0361328-0.8325195-0.4501953-1.1240234-0.6865234
				c-0.5600586-0.3447266-0.8208008-0.3217773-1.456543-0.1328125c0.4765625,0.7456055,0.7226563,0.5922852,1.4111328,0.9233398
				c0.5639648,0.3442383,2.0019531,1.5288086,2.4487305,2.0151367c-0.1328125,0.0112305-0.2612305,0.0229492-0.3632813,0.2954102
				c-0.230957,0.2836914,0.0224609,1.4433594,0.3251953,1.8085938c0.2875977,0.2382813,0.5639648,0.3442383,0.949707,0.3105469
				l-1.5473633,1.453125c0.6772461,0.2001953,0.9233398,0.0473633,1.4985352,0.5219727l-1.2983398,0.1152344l-1.7138672-1.2900391
				l-1.7861328-0.7607422c0.6660156,0.0717773,1.7177734,0.1098633,2.3383789-0.2099609
				c1.112793-0.6245117,0.5830078-1.8901367-0.2797852-2.6015625c-0.5600586-0.3447266-0.9501953-0.3085938-1.6123047-0.3803711
				c-0.5336914-0.0834961-1.3544922-0.4047852-1.8769531-0.3579102l-1.4150391,0.2592773l0.0908203-0.402832
				c-0.4052734-0.0947266-0.5488281-0.2138672-0.9121094,0.081543c-0.4316406-0.355957-0.4428711-0.484375-0.9765625-0.5678711
				l0.0683594,0.6489258l-0.590332-0.6035156l-0.0566406,0.6621094c-0.3178711-0.4975586-0.3330078-0.6259766-0.8779297-0.8398438
				l0.4389648,1.6669922l-0.2158203,0.4140625c-0.7226563,0.590332-0.715332,1.9038086-0.628418,2.6850586
				c0.1665039,1.5610352-0.1816406,1.9868164-0.3139648,3.1806641c-0.0341797,0.9213867,0.2685547,1.2885742,0.019043,2.6259766
				c-0.0717773,0.5317383-0.5678711,2.0209961-0.7871094,2.4355469l-0.5791016,0.7075195l-0.4350586,0.8266602
				c-0.2197266,0.4145508-0.5791016,0.7094727-0.7983398,1.1240234c-0.2045898,0.5429688,0.0830078,0.78125,0.2421875,1.0292969
				c0.215332,0.7680664-0.3330078,0.5541992,0.5712891,1.6572266l-0.4619141,0.565918l0.5185547-0.0473633
				c-0.2915039,0.9462891,0.2988281,1.5517578,1.1918945,1.3398438c0.6357422-0.1894531,1.3320313-1.0390625,1.5214844-1.7143555
				l0.2612305-0.0229492l1.7480469,2.8647461c0.3027344,0.3671875,0.3745117,1.0180664,0.9082031,1.1010742
				c0.5336914,0.0834961,0.734375-0.4594727,0.9536133-0.8740234c0.230957-0.2836914,0.4770508-0.4370117,0.7075195-0.7207031
				c0.3217773-0.6850586-0.3100586-1.6801758-0.2495117-2.3427734c0.0717773-0.53125,0.4350586-0.8266602,0.4956055-1.4887695
				c-0.0981445-0.9101563-0.7758789-1.112793-1.222168-1.5991211c-0.4467773-0.484375-0.4995117-1.0043945-0.5712891-1.6552734
				c-0.1552734-1.4326172,0.5825195-1.8920898,0.71875-3.0859375c0.0454102-0.7929688-0.4008789-1.2773438-0.4580078-1.7993164
				c-0.0415039-0.3901367,0.0454102-0.7910156,0.4355469-0.8271484c0.8964844-0.2119141,1.0063477,0.8305664,1.078125,1.4799805
				l-0.1210938,1.3242188c-0.0717773,0.5336914-0.2910156,0.9462891-0.2192383,1.5966797
				c0.1855469,0.5092773,0.4882813,0.8764648,0.6582031,1.2548828c0.3027344,0.3666992,0.3447266,0.7587891,0.6323242,0.9951172
				c0.2724609,0.105957,0.4160156,0.2231445,0.6772461,0.2006836c0.2724609,0.1079102,0.5449219,0.2133789,0.8061523,0.190918
				c0.6357422-0.1894531,1.2900391-1.4306641,1.8955078-1.8769531c0.3632813-0.296875,0.8969727-0.2119141,1.2866211-0.2480469
				c-0.2192383,0.4145508-0.7983398,1.1240234-1.0292969,1.40625c-0.4916992,0.3061523-1.3886719,0.5180664-1.434082,1.3110352
				c-0.2763672,1.0766602,1.1503906,0.9477539,1.1201172,1.8691406c-0.0605469,0.6625977-1.0668945-0.1665039-1.3735352,0.6489258
				c-0.4350586,0.8271484,0.1401367,1.3022461,0.340332,1.9414063c0.0419922,0.3901367-0.1738281,0.8022461-0.2646484,1.2055664
				c-0.5488281,0.96875-1.0102539,0.3535156-1.7485352,0.8134766c-0.6206055,0.3198242-1.3017578,1.2998047-1.9375,1.4892578
				c-0.5029297,0.1757813-0.9384766-0.1801758-1.328125-0.1459961c-0.5185547,0.0473633-0.9536133,0.8759766-1.8164063,0.1645508
				c-0.8779297-0.8417969,0.1210938-1.3242188-0.0947266-2.0942383l-0.5297852-1.2661133
				c-0.737793,0.4599609-1.4604492,1.0522461-1.2182617,2.081543c0.359375,0.8852539,1.222168,1.5966797,0.7719727,2.2929688
				c-0.3632813,0.2954102-1.1430664,0.3652344-1.7485352,0.8139648c-0.737793,0.4614258-1.5058594,1.8427734-1.7519531,1.9980469
				c-0.3632813,0.2949219-0.7529297,0.3291016-1.1123047,0.6240234l-1.3056641,1.2998047
				c-0.1137695,0.1420898-0.1137695,0.1420898-0.230957,0.2841797l-1.6269531-0.5112305l0.0981445,0.9101563
				c-0.6508789,0.0585938-0.6508789,0.0585938-1.1845703-0.0244141c-0.4008789-0.0966797-1.1958008-0.1552734-1.3999023,0.3876953
				c-0.2197266,0.4145508,0.862793,0.7114258,1.1391602,0.8173828c1.6533203,0.7719727,1.9790039,2.5810547,1.2714844,3.3037109
				c-0.4770508,0.4350586-1.2983398,0.1152344-1.831543,0.0322266c-1.199707-0.1552734-3.0878906-0.6435547-4.2685547-0.6679688
				c-1.5595703,0.1381836-1.0595703,1.1445313-1.3623047,1.9604492c-0.0761719,0.5332031-0.5678711,0.8398438-0.6547852,1.2412109
				c-0.1176758,0.1416016-0.1020508,0.2724609-0.0874023,0.402832c-0.0146484-0.1303711,0.4277344,1.5380859,0.4125977,1.4077148
				c0.1855469,0.5087891,1.0976563,0.4277344,1.6313477,0.5107422c0.6733398,0.2006836,0.8476563,0.5810547,1.4072266,0.925293
				c0.5488281,0.2119141,0.7949219,0.0585938,1.3017578-0.1171875c1.1660156-0.105957,2.2783203,0.4521484,4.0117188-0.4921875
				c0.3745117-0.1645508,0.737793-0.4594727,0.8398438-0.7319336c0.3481445-0.4238281,0.1743164-0.8041992,0.6508789-1.2412109
				c0.5942383-0.5791016,1.7485352-0.8139648,2.3574219-1.262207c0.4770508-0.4370117,0.1328125-1.1938477,1.0141602-1.5361328
				c0.6357422-0.1875,1.3398438,0.2744141,2.2216797-0.0683594c0.7641602-0.2006836,1.5893555-1.0615234,2.3574219-1.2617188
				c0.7792969-0.0703125,1.2636719,0.8056641,2.3461914,1.1030273l4.2949219,0.9267578
				c0.1323242-0.0112305,0.4047852,0.0966797,0.5488281,0.2158203c1.1503906,0.9462891-0.5073242,1.3583984-1.1430664,1.5478516
				c-0.5068359,0.1757813-0.6357422,0.1870117-1.1577148,0.234375c0.1474609,0.1176758,0.1586914,0.2480469,0.3027344,0.3671875
				c0.5488281,0.2138672,1.8730469,0.3579102,2.3535156-0.0795898c0.230957-0.2836914,0.2045898-0.5449219,0.1630859-0.9345703
				c0.5029297-0.1757813,0.7490234-0.3291016,0.9536133-0.8740234c-0.0419922-0.3896484-0.2158203-0.7680664,0.1474609-1.0634766
				c0.230957-0.2836914,0.7490234-0.3310547,1.1425781-0.3671875c-0.6054688-0.7319336-1.097168-0.4257813-1.8920898-0.4863281
				c-0.4008789-0.0942383-0.5600586-0.3442383-0.9648438-0.4384766c-0.3896484,0.0356445-0.7490234,0.3310547-1.2978516,0.1171875
				c-0.4047852-0.0966797-0.8364258-0.4521484-1.2373047-0.546875c-0.4204102-0.2250977-1.4873047-0.3916016-1.4267578-1.0541992
				c0.1020508-0.2724609,0.2192383-0.4140625,0.4765625-0.4370117c0.1176758-0.1416016,0.2460938-0.1533203,0.378418-0.1665039
				l0.1855469,0.5112305c1.3852539-0.5185547,0.9345703,0.1777344,2.1342773,0.3330078
				c1.0786133,0.296875,2.3500977-0.0795898,3.4472656,0.3481445c0.6777344,0.2001953,0.4580078,0.6147461,1.0483398,1.2182617
				c0.7192383,0.5942383,1.7446289,0.3691406,2.6523438,0.2875977c-0.1132813,0.1420898-0.2451172,0.1552734-0.2304688,0.2836914
				c-0.2197266,0.4145508,0.0683594,0.6508789,0.3447266,0.7568359c0.9755859,0.5698242,2.4257813-0.6108398,1.1845703-1.1557617
				l1.9941406-0.9667969c-0.9648438-0.4389648-1.4423828-0.0019531-2.7099609-0.8081055
				c0.6513672-0.0585938,0.7792969-0.0698242,1.2568359-0.5073242l0.0751953-0.5332031l2.1113281-1.1088867
				c-0.6689453,1.1108398,0.0839844,0.78125,0.3369141,1.9414063c0.6513672-0.0585938,1.4570313,0.1303711,2.1083984,0.0737305
				c0.5068359-0.1777344,1.8916016-0.6962891,2.2548828-0.9916992c0.359375-0.2949219,0.4501953-0.6962891,0.8095703-0.9912109
				l1.5029297-0.6606445c0.609375-0.4482422,1.0712891-1.015625,1.5361328-1.5834961
				c0.2304688-0.2836914,0.4619141-0.5673828,0.8671875-0.4711914c0.5449219,0.2138672,0.6845703,1.515625,0.7412109,2.0361328
				c0.1738281,0.378418,0.359375,0.8852539,0.4013672,1.2768555c-0.0800781,1.7143555-1.8808594,2.0078125-2.9667969,2.8930664
				c-0.7226563,0.590332-1.2753906,1.559082-2.0283203,1.8901367c-0.96875,0.7436523-3.7431641,1.7807617-5.0146484,2.1572266
				l-2.6982422,0.5048828c-0.6201172,0.3198242-1.3427734,0.9101563-1.546875,1.453125
				c-0.2050781,0.5449219,0.1240234,1.1713867-0.4960938,1.4892578c-0.6210938,0.3198242-3.2050781,0.6811523-3.8676758,0.6113281
				c-1.0668945-0.168457-0.7075195-0.4638672-2.2666016-0.3237305c-1.4267578,0.1289063-2.9707031,0.3994141-4.4423828,0.1362305
				c0.2304688-0.2836914,0.6962891-0.8515625,0.7832031-1.2524414c0.1020508-0.2724609-0.0415039-0.3916016-0.0717773-0.6508789
				c-0.0117188-0.1289063-0.0419922-0.3896484-0.1855469-0.5087891c-0.3027344-0.3671875-1.3398438-0.2744141-1.7294922-0.2387695
				c-0.8969727,0.2119141-0.737793,0.4599609-2.1645508,0.5883789l-4.7944336,0.5620117
				c-2.3349609,0.2084961-4.2006836,1.1655273-5.1088867,1.2470703c-0.6508789,0.0585938-2.1079102-0.0737305-2.7851563-0.2763672
				c-0.5483398-0.2138672-1.1235352-0.6884766-1.7446289-0.3686523c-0.6357422,0.1889648-0.8398438,0.7319336-1.5888672,1.0610352
				c-0.753418,0.331543-2.1796875,0.4599609-3.0351563,1.0615234c-0.8515625,0.6020508-0.4067383,1.0878906-1.4038086,1.5708008
				c-0.5053711,0.1777344-2.206543,0.1982422-2.8569336,0.2568359c-1.4418945-0.0014648-2.1650391,0.5888672-3.4228516,1.0957031
				l-1.387207,0.5185547c-0.5048828,0.1757813-1.5307617,0.3994141-1.7480469,0.8134766
				c-0.2177734,0.4125977,0.0981445,0.9101563,0.1401367,1.3017578c0.0415039,0.3896484-0.0458984,0.7910156-0.1347656,1.1938477
				c-0.6791992,0.9804688-2.4291992,1.7939453-2.1435547,3.2148438c0.2270508,0.8989258,0.7607422,0.9819336,1.7670898,1.8105469
				c1.3227539,1.3266602,2.3120117,3.2089844,3.7368164,4.2631836c1.8413086,1.2807617,4.5053711,2.8813477,6.7832031,3.3334961
				l3.9545898,0.1704102c2.1191406,0.2026367,3.746582,0.715332,5.9716797,0.6455078l4.8891602-0.8325195
				c1.0405273-0.0927734,2.5844727-0.3632813,3.6665039-0.0664063c1.0825195,0.296875,1.2944336,1.0668945,3.2431641,0.8911133
				l2.7133789-0.3745117c0.6357422-0.1875,1.1425781-0.3652344,1.831543-0.0322266
				c1.6723633,0.9008789-1.1616211,2.5996094,0.1323242,3.6669922c0.7192383,0.5922852,3.0991211,0.7719727,4.0527344,1.0800781
				c0.6625977,0.0722656,2.7509766,1.1977539,3.1982422,1.684082c0.2871094,0.2363281,0.3134766,0.4975586,0.6162109,0.8647461
				c0.2988281,0.3671875,0.9804688,0.5678711,1.0214844,0.9594727c0.0419922,0.3896484-0.7978516,1.1220703-1.0292969,1.4057617
				c-0.7109375,0.7207031-2.0883789,2.5522461-1.3125,3.6650391c0.3027344,0.3666992,1.1240234,0.6865234,1.5439453,0.9116211
				l3.7880859,1.1049805c1.6416016,0.6416016,1.7822266,1.9433594,2.7773438,2.6416016
				c0.7041016,0.4633789,1.8730469,0.3574219,2.796875,0.4067383l3.9052734,0.9628906
				c1.3583984,0.4052734,0.7910156,1.2431641,1.8574219,1.409668c2.2519531,0.1933594,5.7080078-1.8256836,7.5429688-3.0405273
				l3.7275391-1.9111328c1.4912109-0.7905273,2.8339844-1.7006836,4.1777344-2.6088867
				c2.546875-1.9355469,4.6318359-4.4882813,5.8955078-7.3603516c0.4355469-0.8266602,1.6689453-2.777832,1.7451172-3.309082
				c0.1738281-0.8041992-0.6630859-1.2548828-0.3408203-1.9394531c0.4199219-0.9594727,2.1152344-2.293457,2.5205078-3.3793945
				c0.3369141-0.5561523,0.2382813-1.4663086-0.3261719-1.8105469c-0.5449219-0.2138672-0.9082031,0.0810547-1.9902344-0.2158203
				c0.8173828-2.1743164,2.296875-4.2783203,3.5273438-6.2290039c0.5673828-0.8378906,1.5810547-2.3745117,1.6005859-3.4262695
				c0.0039063-1.1826172-1.0527344-1.2207031-1.4951172-1.7050781c-0.4316406-0.3554688-0.3330078-0.6279297-0.6054688-0.7358398
				c-0.5449219-0.2119141-1.4150391,0.2592773-1.9482422,0.1757813c-0.390625,0.0341797-0.6777344-0.2021484-0.9501953-0.3081055
				c-0.4199219-0.2250977-0.9238281-0.0493164-1.3134766-0.0151367c-0.5859375-1.7861328,0.6357422-5.0483398,1.234375-6.8095703
				c1.1650391-3.7827148,2.7246094-7.6025391,2.1601563-11.6235352l-0.5976563-3.0991211
				c-0.1699219-0.3803711-0.484375-0.8759766-0.9912109-0.7001953c-0.7646484,0.2006836-1.4384766,2.4941406-1.7558594,3.1787109
				l-1.7558594,3.1806641c-0.4501953,0.6962891-0.7421875,1.6425781-1.3359375,2.2211914
				c-0.4775391,0.4375-1.2304688,0.7666016-1.8505859,1.0844727c-0.2011719-0.6376953-0.5751953-0.4731445-1.0820313-0.2954102
				l-2.3544922,1.262207c-0.4912109,0.3066406-1.4599609,1.050293-2.1113281,1.1088867
				c-0.5185547,0.0473633-0.8212891-0.3198242-1.5849609-0.1210938c-0.5185547,0.0473633-1.4003906,0.3896484-1.8056641,0.2929688
				c-0.5332031-0.0830078-1.1083984-0.5561523-1.6425781-0.6391602c-0.4003906-0.0966797-1.1689453,0.1040039-1.5439453,0.2685547
				c-1.2988281,0.1171875-3.3310547-0.4902344-4.6738281-0.7626953c0.2460938-0.1533203,0.5068359-0.1757813,0.4804688-0.4370117
				c0.1894531-0.6733398-0.8476563-1.7631836,0.4238281-2.1401367c0.1289063-0.0112305,0.3896484-0.0356445,0.5185547-0.046875
				l2.2207031-0.0683594l1.2880859-0.2460938c0.6621094,0.0722656,0.8359375,0.4506836,1.7441406,0.3691406l3.1904297-0.8115234
				c1.3017578-0.1176758,1.8271484,1.1503906,3.1748047,0.2402344c1.0976563-0.7548828,2.1308594-3.3452148,2.5244141-4.5620117
				l1.1347656-2.8608398l0.4394531-2.0092773c0.4951172-1.4912109,0.9453125-2.1875,0.7636719-3.8789063l-0.2646484-2.4731445
				c-0.1132813-1.0405273-0.3251953-1.8105469-1.3964844-0.7944336c-0.828125,0.862793-1.1201172,1.8085938-2.4443359,1.6650391
				c-0.3515625,1.6083984-0.1289063,3.6894531-1.7333984,4.6225586c-0.609375,0.4482422-1.2861328,0.2456055-1.9179688,0.4350586
				c-0.3789063,0.1645508-0.8710938,0.4731445-1.1435547,0.3652344c-0.3896484,0.0336914-0.6767578-0.2026367-0.71875-0.5922852
				c0.0722656-0.5317383,0.9541016-0.8740234,1.3320313-1.0390625c1.2568359-0.5068359,1.8925781-0.6962891,2.8193359-1.8295898
				c0.5634766-0.8398438,0.6240234-1.5024414,1.0742188-2.1987305c0.4619141-0.5673828,0.8671875-0.4726563,1.3291016-1.0385742
				c0.3476563-0.4257813,0.9873047-1.7973633,1.3203125-2.3520508l1.5888672-4.7412109
				c0.7685547-1.3833008,2.0556641-1.6293945,2.3925781-3.3681641l0.2001953,0.6396484
				c1.3740234-0.6489258,1.3623047-1.9619141,1.09375-3.2504883c0.7792969-0.0703125,2.3652344,0.0493164,3.0009766-0.1381836
				l2.9472656-1.8408203c0.7382813-0.4619141,1.953125-1.3588867,2.1269531-2.1630859
				c0.2041016-0.5429688-0.6396484-2.3061523-0.9423828-2.6733398c-0.1552734-0.2480469-0.2988281-0.3671875-0.5751953-0.4731445
				c-0.6777344-0.2021484-1.5703125,0.0097656-2.0585938-0.8666992c-0.6054688-0.7338867-1.2753906-3.3012695-1.7744141-4.3081055
				c-1.0751953-2.6621094-1.1464844-2.1303711-1.6503906-3.1362305c-0.3291016-0.6269531-0.2685547-1.2895508-0.3408203-1.9404297
				c-0.1845703-0.5078125-0.4873047-0.875-0.5136719-1.1362305c-0.0576172-0.5200195,0.3056641-0.8154297,0.6542969-1.2402344
				c0.5488281-0.9697266,0.4648438-1.75,1.0595703-2.3291016c0.4765625-0.4370117,0.8964844-0.2109375,1.1123047-0.625
				c0.7988281-1.1220703-1.1308594-2-0.4804688-3.2412109c0.3330078-0.5556641,1.2753906-1.559082,1.9257813-1.6181641
				c0.5039063-0.1757813,0.9238281,0.0483398,1.4267578-0.1274414c0.4921875-0.3076172,0.5263672-1.2299805,0.7304688-1.7739258
				c0.5068359-1.359375,1.3017578-1.2988281,1.4951172-3.1547852c0.0605469-0.6625977,0.0908203-1.5859375-0.2236328-2.0825195
				c-0.6054688-0.7348633-1.4570313-0.1323242-1.6611328,0.4116211c-0.4501953,0.6962891-0.3515625,1.6083984-0.2685547,2.3886719
				c-0.0458984,0.7919922-0.1933594,1.855957-0.6435547,2.5532227c-0.5488281,0.9697266-1.6728516,0.2822266-1.9902344-0.2143555
				c-0.1552734-0.2490234-0.0527344-0.5205078-0.0830078-0.7817383c0.0185547-1.0527344-0.2841797-1.4189453-0.0195313-2.625
				c0.0722656-0.5327148,0.5673828-2.0219727,0.4130859-2.2705078c-0.0458984-0.390625-1.2382813-1.7275391-1.5371094-2.0957031
				c-0.5898438-0.6035156-1.6533203-1.9536133-2.6367188-1.3393555c-0.8671875,0.4711914-0.6855469,2.1635742-0.8476563,3.097168
				c-0.0878906,0.4018555-0.265625,1.2060547-0.6552734,1.2412109c-0.2421875,0.1533203-0.6767578-0.2026367-0.9609375-0.4389648
				c-0.734375-0.7226563-1.1806641-1.2080078-1.3056641-2.3793945c0.4013672,0.0947266,1.4833984,0.3925781,1.5585938-0.1401367
				c-0.0566406-0.5200195-0.6728516-1.3847656-1.1953125-1.3374023c-0.5332031-0.0834961-0.6054688,0.4482422-1.3134766-0.0131836
				c-0.5751953-0.4741211-1.8505859-2.5932617-2.4560547-3.3276367c-0.7597656-0.9829102-1.8955078-1.800293-3.0078125-2.3574219
				c-0.6738281-0.2011719-2.8652344-1.0566406-3.4736328-0.6074219c-0.2460938,0.1533203-0.2050781,0.5429688-0.3066406,0.8144531
				c-0.1435547-0.1171875-0.2880859-0.2363281-0.5449219-0.2133789c-0.9384766-0.1782227-1.2148438,0.8974609-1.2753906,1.5600586
				c0.0263672,0.2597656,0.0830078,0.78125-0.2919922,0.9458008c-0.3779297,0.1645508-0.6660156-0.0717773-0.9541016-0.309082
				c-0.7041016-0.4619141-0.71875-0.5922852-1.6689453-0.9008789c0.1855469,0.5087891,0.3710938,1.0180664,0.6855469,1.5146484
				c0.7636719,0.9829102,1.2822266,0.9355469,1.1611328,2.2612305c-1.09375-0.4277344-2.3310547-0.9726563-3.0800781-1.8261719
				l1.0107422-0.3535156l-0.0273438-0.2592773c-0.4160156-0.2260742-1.8427734-1.2802734-1.8994141-1.800293
				c-0.0419922-0.390625,0.4765625-0.4379883,0.4355469-0.828125c0.0908203-0.4018555-0.3291016-0.6269531-0.125-1.1708984
				c0.3476563-0.4257813,1.1005859-0.7558594,1.0439453-1.2763672c-0.0302734-0.2602539-0.3173828-0.496582-0.5898438-0.6035156
				c-0.5605469-0.3442383-1.5556641-1.0424805-2.1494141-0.4643555c-0.4765625,0.4370117-0.1171875,1.3242188-0.3818359,2.5302734
				c-0.4052734-0.0942383-1.0976563-0.4272461-1.4990234-0.5219727c-0.5332031-0.0834961-1.1542969,0.234375-1.8466797-0.0966797
				c-0.953125-0.309082-1.2939453-1.0668945-2.1152344-1.3876953c-1.5136719-0.6518555-2.7851563-0.2744141-4.2001953-0.0161133
				c-0.6474609,0.0576172-1.6884766,0.1513672-2.3085938,0.4692383c-0.4921875,0.3076172-0.7119141,0.7207031-0.9277344,1.1342773
				c-0.578125,0.7094727-1.7216797,1.0737305-1.6074219,2.1142578c0.2265625,0.8999023,1.0214844,0.9604492,1.3085938,1.1958008
				l0.8291016,1.6347656c-0.8935547,0.2109375-1.3134766-0.0131836-2.0888672,0.0561523l-3.0766602,0.6694336
				c-1.5742188,0.0107422-2.0625-0.8652344-3.0273438-1.3041992c-0.5449219-0.2138672-0.9345703-0.1791992-1.3544922-0.4042969
				c-0.4316406-0.3544922-0.4731445-0.7451172-0.6171875-0.8647461c-0.3027344-0.3657227-1.6269531-0.5107422-2.0166016-0.4755859
				c0.0263672,0.2612305,0.0415039,0.390625-0.1894531,0.6733398c-0.2192383,0.4145508-1.3320313,1.0400391-1.8505859,1.0864258
				c-0.2456055,0.1533203-0.6508789,0.0585938-0.9233398-0.0483398l0.0722656-0.5327148
				c0.0605469-0.6611328-0.3295898-0.6264648-0.8325195-0.4501953c-0.7685547,0.2001953-1.2299805,0.7670898-1.8393555,1.2158203
				c0.2197266-0.4135742,0.4238281-0.9575195,0.7719727-1.3823242c0.4770508-0.4370117,1.112793-0.6264648,1.7333984-0.9443359
				l1.9638672-1.2270508c0.4916992-0.3066406,1.2451172-0.6376953,1.6044922-0.9326172
				c1.0859375-0.8857422,1.3129883-3.6640625,1.0292969-5.0839844c-2.0092773,0.8359375-1.4760742,0.9194336-2.8344727,1.6987305
				c-0.4916992,0.3066406-0.7529297,0.3305664-1.1274414,0.4951172
				C460.0244141,243.1601563,459.9335938,243.5625,459.8466797,243.9633789L459.8466797,243.9633789z M473.6289063,239.1801758
				l1.2792969,0.9365234l0.9755859,1.7509766c0.75-0.3300781,0.8515625-0.6015625,1.359375-0.7783203
				c0.2451172-0.1533203,1.8613281,0.2270508,1.4863281-0.7900391c-0.1435547-0.1191406-0.2871094-0.2373047-0.4306641-0.3554688
				l-0.0869141,0.4018555c-0.4316406-0.3554688-1.0068359-0.8295898-1.5556641-1.043457
				C476.1074219,239.0893555,474.2753906,239.1225586,473.6289063,239.1801758L473.6289063,239.1801758z M478.0263672,239.8369141
				c1.8164063-0.1625977,1.5019531-0.6606445,2.5429688-0.753418c0.5029297-0.1777344,1.3085938,0.0136719,1.8427734,0.0966797
				l-0.0722656,0.5317383c1.09375,0.4277344,1.0253906-0.2231445,1.8320313-0.0332031
				c0.8212891,0.3208008,1.3242188,1.3276367,2.6787109,1.7304688c0.5449219,0.2148438,0.8212891,0.3208008,1.3134766,0.0141602
				c0.3134766,0.4975586,0.4462891,0.4863281,0.9648438,0.4389648c0.0605469-0.6621094,0.4345703-0.8276367,0.2607422-1.2060547
				c-0.1699219-0.3793945-1.5400391-0.9130859-1.6572266,0.4121094c-0.4619141-0.6166992-0.2158203-0.7700195-0.3857422-1.1474609
				c-0.4619141-0.6166992-1.3847656-0.6650391-2.0214844-0.4765625c-0.2685547-1.2895508-0.0976563-0.9111328-1.8955078-1.800293
				c-0.5634766-0.34375-1.8007813-0.8896484-2.4667969-0.9614258c-0.7910156-0.0605469-0.9951172,0.4833984-1.6162109,0.8022461
				c-0.3476563,0.4257813-0.7529297,0.3300781-1.1123047,0.6254883
				C477.8857422,238.5351563,477.9697266,239.3164063,478.0263672,239.8369141L478.0263672,239.8369141z M505.4697266,234.0893555
				l1.6425781,1.8242188c0.6171875,0.8637695,1.2333984,1.7285156,1.9677734,2.4501953
				c0.5751953,0.4741211,1.3964844,0.7949219,2.1611328,0.5952148c0.5068359-0.1772461,2.0390625-1.7597656,0.7871094-2.4360352
				c-0.4169922-0.2246094-1.0410156,0.09375-1.4267578,0.128418c0.0302734-0.9223633-0.0263672-1.4428711-0.2539063-2.3422852
				c-0.0263672-0.2602539-0.0830078-0.7802734-0.5908203-0.6035156c-0.6201172,0.3188477,0.1103516,2.2231445-0.8701172,1.6542969
				l-0.4160156-0.2250977l-0.4316406-0.3554688c-0.4648438,0.5664063,0.0830078,0.7802734,0.5302734,1.265625
				c0.5751953,0.4750977,1.0175781,0.9604492,1.1044922,1.7407227c-1.4111328-0.925293-1.4941406-1.7045898-2.4023438-2.8056641
				C506.6845703,234.3754883,506.2529297,234.0195313,505.4697266,234.0893555L505.4697266,234.0893555z M511.1044922,232.7963867
				c0.3554688,0.887207,1.7480469,2.8647461,2.7021484,3.1728516
				C513.1591797,234.8452148,512.3271484,233.2114258,511.1044922,232.7963867L511.1044922,232.7963867z M414.9550781,242.3427734
				c0.3896484-0.034668,0.9101563-0.081543,1.1689453-0.1049805l3.387207,1.0097656
				c0.9384766,0.1787109,1.8618164,0.2275391,2.4785156,1.0913086c-1.6879883,0.1523438-1.328125-0.1435547-2.6679688-0.4169922
				c-1.1958008-0.1552734-1.559082,0.1401367-2.4824219,0.0908203c-0.5336914-0.0834961-0.8061523-0.1899414-1.2109375-0.284668
				l-3.4775391,0.5742188c-0.9233398-0.0483398-1.1240234-0.6870117-1.6728516-0.9008789
				c-0.5600586-0.3442383-1.0668945-0.1674805-1.559082,0.1401367c-0.8779297,0.3417969-1.7329102,0.9433594-2.5864258,1.5458984
				c-1.5913086,1.0615234-3.4262695,2.277832-4.5712891,3.8256836c-0.7963867,1.1220703-0.5976563,1.7617188-1.3945313,2.8837891
				c-0.8095703,0.9921875-2.675293,1.9477539-3.9355469,3.6381836c-0.9135742,1.2641602-0.8305664,2.0444336-1.1767578,2.4702148
				c-0.2329102,0.2827148-1.8374023,1.2158203-2.2138672,1.3803711c-0.3745117,0.1645508-0.7641602,0.199707-1.0102539,0.3540039
				c-0.3613281,0.2949219-0.5791016,0.7084961-0.7983398,1.1225586l-1.2866211,1.4287109
				c-0.3330078,0.5551758-1.684082,2.6469727-1.7578125,3.1796875c-0.0322266,0.9223633,1.4550781,1.3149414,0.6699219,2.5673828
				c-0.1157227,0.1411133-0.230957,0.2832031-0.3466797,0.4257813c-0.8530273,0.6015625-1.0820313-0.2978516-1.7441406-0.3696289
				c-0.8081055-0.1904297-2.0092773,0.8369141-2.7285156,0.2446289c-0.4462891-0.4853516-0.2553711-1.1586914-0.3100586-1.6796875
				c-0.2006836-0.6386719-0.4882813-0.8754883-0.6738281-1.3842773c-0.3310547-0.628418-0.0678711-1.8344727-0.987793-3.0654297
				c-0.4726563-0.7451172-1.0195313-0.9589844-1.4414063-0.0004883l-0.3066406,0.8144531
				c-0.5146484-1.1352539-0.2236328-2.081543-1.1621094-2.2612305c-1.1953125-0.1542969-1.5605469,1.3237305-2.2568359,2.1738281
				c-1.7373047,2.1269531-2.0263672,1.8901367-3.3569336,2.9282227l-1.7651367,1.8666992l-1.1010742,0.7558594
				c-0.5922852,0.5786133-0.9858398,1.7963867-1.2905273,2.6118164l-1.2734375,5.2382813
				c-0.2783203,1.074707-0.7456055,2.8266602-1.8862305,3.1899414c-0.375,0.1645508-1.559082,0.1401367-1.9624023,0.0454102
				c-0.4179688-0.2250977-0.71875-0.5917969-1.1220703-0.6884766c-0.3896484,0.0361328-1.4301758,0.128418-2.3950195-0.3105469
				c-0.5751953-0.4726563-1.3359375-1.456543-1.8847656-1.668457c-0.546875-0.2158203-1.0668945-0.168457-1.5854492-0.1210938
				c-0.6508789,0.0566406-1.559082,0.1396484-2.0927734,0.0566406c-1.3544922-0.4038086-2.2290039-2.4277344-2.7436523-3.5639648
				c-0.1850586-0.5087891-0.5297852-1.2666016-0.9477539-1.4916992c-0.5751953-0.4741211-1.2695313,0.3764648-1.9467773,0.1748047
				c-0.5336914-0.0839844-1.7143555-1.2910156-2.4047852-1.6240234c-0.144043-0.1186523-0.5771484-0.4731445-0.8212891-0.3198242
				c-0.2592773,0.0224609-0.3349609,0.5561523-0.4355469,0.8266602c-0.0185547,1.0532227,0.2709961,1.2895508,0.8725586,2.0244141
				c0.1435547,0.1176758,0.590332,0.6040039,0.2270508,0.8989258c-0.6054688,0.4482422-1.4794922-1.5751953-2.1606445-0.5942383
				c-0.1025391,0.2724609-0.0874023,0.4023438-0.2045898,0.5429688l-0.2592773,0.0239258l-0.6279297-2.1767578l-0.0966797-0.9111328
				l-0.8740234-2.0234375l-1.0708008,1.015625l-0.2558594-1.159668l-0.3574219-0.887207
				c-0.2006836-0.6386719-0.71875-0.5922852-1.2109375-0.2861328c-0.96875,0.7446289-1.6386719,1.8554688-2.2441406,2.3037109
				c-0.737793,0.4609375-1.2998047,0.1166992-1.8046875,0.293457c-0.6206055,0.3188477-1.0561523,1.1455078-1.2470703,1.8203125
				l-0.9990234,5.3442383c-0.8647461,4.1508789-1.4169922,5.1196289-0.9404297,9.543457l0.5258789,2.4487305l0.4941406,3.371582
				l0.440918,1.668457l0.2607422-0.0244141c-0.1816406-1.6914063-0.128418-4.8496094,0.3520508-6.46875
				c0.4692383-1.7485352,1.21875-2.0795898,1.2563477-4.1855469l0.3105469,1.6821289
				c0.7094727-0.7231445,0.6542969-1.2431641,1.6499023-1.7255859c0.3310547,0.6259766,0.4746094,0.7456055,0.6884766,1.515625
				c0.2006836,0.637207,0.2553711,1.1577148,0.5864258,1.7861328c0.3295898,0.6259766,0.6020508,0.7338867,0.9179688,1.2314453
				c0.3027344,0.3652344,0.5014648,1.0048828,0.6865234,1.5136719c0.3598633,0.8876953,0.6435547,2.3085938,1.7236328,2.6054688
				c0.4223633-0.9575195,0.2973633-2.128418,0.3125-3.1821289c0.1020508-0.2724609,0.1494141-1.0634766,0.3935547-1.2167969
				c0.6357422-0.1894531,0.8930664,0.9707031,0.9345703,1.3603516c0.3710938,1.0180664,0.6416016,2.3085938,1.2583008,3.1708984
				c0.6450195,1.1259766,1.1523438,0.9482422,1.9960938,2.7114258l0.190918-0.6733398
				c0.3579102,0.887207-0.0922852,1.5854492,0.8876953,2.1533203c-0.0566406-0.5205078-0.1625977-2.7436523,0.0527344-3.1582031
				c0.1025391-0.2724609,0.4921875-0.3066406,0.753418-0.3291016l0.6054688,4.4121094
				c0.0546875,0.5205078,0.253418,1.1601563,0.5561523,1.5273438c0.7338867,0.7226563,1.5874023,0.1191406,1.9165039,0.7470703
				l0.5126953,2.3178711c0.440918,1.6689453,1.0561523,3.7163086,1.7407227,5.2299805
				c0.5166016,1.1367188,1.2036133,2.6523438,2.081543,3.4926758c0.3027344,0.3671875,0.7475586,0.8535156,1.2524414,0.675293
				c0.5073242-0.1757813,0.3066406-0.8154297,0.3935547-1.2163086c0.0756836-0.5317383,0.3198242-0.6850586,0.4086914-1.0878906
				c0.0605469-0.6625977-0.1552734-1.4326172,0.1777344-1.9868164c-0.1738281,0.8041992,0.0986328,0.9101563,0.1835938,1.6914063
				c0.1118164,1.0405273,0.3671875,2.2006836,0.7397461,3.2167969c0.5566406,1.5288086,0.9707031,2.9345703,1.9038086,4.296875
				c0.6186523,0.8647461,2.043457,1.918457,2.90625,2.6298828c1.1806641,1.2070313,2.3442383,2.2856445,3.769043,3.3393555
				l1.6992188,1.1621094l1.4111328,0.925293c1.2529297,0.675293,1.3852539-0.5205078,2.1645508-0.5888672
				c0.4047852,0.0947266,1.8276367,1.1484375,2.2592773,1.5043945c2.1875,2.0375977,1.4682617,1.4458008,2.9780273,3.2807617
				l3.4057617,3.6347656c0.8779297,0.840332,1.9677734,2.4521484,3.1655273,2.6054688l1.1977539,0.1572266
				c1.3398438,0.2744141,2.8383789,0.7963867,4.2382813,0.4067383c0.5205078-0.0473633,0.8818359-0.3408203,1.1142578-0.6245117
				c0.3466797-0.4257813,0.5507813-0.96875,1.0712891-1.0161133c0.5332031,0.0834961,1.7729492,0.628418,2.3193359,0.84375
				c1.3833008,0.6625977,3.3417969,1.8012695,4.8120117,2.0625c1.4716797,0.2631836,2.527832-0.8833008,2.2856445-1.9125977
				c-0.3710938-1.0180664-1.9262695-2.0605469-2.7568359-3.6933594c-0.8041992-1.3720703-1.3603516-2.8989258-2.2802734-4.1308594
				l-2.1113281-2.5693359l-1.2641602-1.9887695L393.5439453,321.25c-0.1586914-0.2480469-0.3857422-1.1469727-0.4277344-1.5385742
				l-1.4453125-3.6801758c-0.6586914-1.2543945-1.9604492-1.137207-2.8041992-2.9003906
				c0.6035156,0.7338867,1.7558594,1.6821289,2.5751953,2.0019531c-0.3706055-1.0180664-1.2016602-2.6508789-1.8203125-3.515625
				l-1.3222656-1.3261719c0.71875,0.5917969,1.2939453,1.0668945,2.2324219,1.2446289l0.2763672-1.0766602
				c0.4086914-1.0878906,0.7832031-1.2524414,0.7739258-2.5654297c-0.1079102-2.2231445-2.1611328-5.4550781-2.4541016-8.1870117
				c-0.1269531-1.1713867,0.1362305-2.3764648,0.2705078-3.5703125l0.0361328-2.105957
				c-0.0419922-0.3901367,0.1889648-0.6757813,0.2646484-1.2055664l-0.0244141-1.4433594
				c0.1757813-0.8041992,0.277832-1.0766602,0.1948242-1.8583984l-0.628418-2.1757813l-0.0375977-1.5742188l-0.2250977-2.0810547
				c-0.168457-1.5610352,0.6713867-2.293457,0.8193359-3.3569336c0.0756836-0.5332031-0.5981445-1.918457-0.8876953-2.1547852
				c-0.4179688-0.2250977-1.3110352-0.0131836-0.9931641-0.6982422c0.3198242-0.6850586,1.4985352,0.5219727,1.8012695,0.8891602
				c0.378418-1.347168,0.0908203-1.5854492-0.1645508-2.7446289l-0.4941406-3.371582
				c-0.2270508-0.8994141-0.8022461-1.3725586-0.8457031-1.7631836c0.0888672-0.4023438,0.4785156-0.4375,0.9404297-1.0039063
				c0.465332-0.5673828,0.6547852-1.2412109,0.715332-1.9033203l0.0224609-2.2358398
				c0.1459961-1.0639648,1.0444336-2.4584961,2.1875-2.8237305c1.1542969-0.234375,2.3330078,0.9726563,2.9819336,0.9150391
				c0.6508789-0.059082,0.96875-0.7436523,1.1879883-1.1582031l1.4985352-4.3383789l0.2612305-0.0239258
				c0.6450195,1.1259766,1.3227539,1.3271484,2.1987305,2.168457l0.7490234,0.8525391
				c0.144043,0.1181641,0.3901367-0.0351563,0.6357422-0.1884766c0.4619141-0.5668945,1.0180664-2.71875,0.6889648-3.3461914
				c-0.1855469-0.5087891-0.7607422-0.9829102-0.9614258-1.621582c-0.0415039-0.390625,0.1762695-0.8041992,0.3935547-1.2172852
				c0.3066406-0.8164063,0.4677734-1.7504883,1.0595703-2.3291016c1.1733398-1.2875977,3.5117188-1.4980469,4.9365234-0.4428711
				c0.7211914,0.5922852,0.6303711,0.9941406,0.9331055,1.3613281c0.4462891,0.4853516,1.0952148,0.4277344,1.309082,1.1967773
				c0.0283203,0.2602539-0.0302734,0.9223633-0.1191406,1.3242188c0.0849609,0.7807617,0.2402344,1.0292969-0.0644531,1.8447266
				c-0.4350586,0.8271484-1.1577148,1.4174805-1.4511719,2.3632813c-0.4067383,1.0878906,0.2573242,1.1601563,0.0947266,2.09375
				c-0.2915039,0.9462891-1.0009766,1.6669922-1.2924805,2.612793c-0.3349609,0.5556641-0.277832,1.0756836-0.8833008,1.5244141
				c-0.4921875,0.3061523-1.2866211,0.246582-1.8051758,0.2929688c-0.7661133,0.199707-1.3735352,0.6489258-1.9941406,0.9672852
				c0.0263672,0.2607422,0.0546875,0.5200195,0.2119141,0.769043c0.215332,0.769043,0.8647461,0.7104492,1.4985352,0.5219727
				c1.0253906-0.222168,2.3837891-1.0019531,3.3925781-0.1728516c0.8759766,0.8417969,1.1425781,3.3139648,1.8901367,4.1660156
				c0.71875,0.5922852,1.2392578,0.5458984,2.046875,0.7363281c0.546875,0.2138672,0.965332,0.4389648,1.3964844,0.7944336
				c1.0068359,0.8286133,0.6889648,1.5146484,1.1464844,2.1298828c0.4316406,0.3544922,0.8081055,0.1918945,1.2529297,0.6762695
				l1.9086914,3.1123047l1.3154297-1.1689453c0.4462891,0.4858398,0.9667969,0.4384766,1.0253906-0.2236328
				c-0.0415039-0.3896484-0.253418-1.1577148-0.4277344-1.5380859c0.8779297,0.8417969,0.9482422,1.4926758,0.9443359,2.675293
				c0.0283203,0.2592773-0.0737305,0.5317383,0.0849609,0.7817383c0.0551758,0.5180664,0.6870117,1.5136719,1.1181641,1.8691406
				c0.5620117,0.3422852,0.9365234,0.1777344,1.4287109-0.1289063c0.4501953-0.6962891,0.7133789-1.9033203,1.4077148-2.7529297
				c0.5810547-0.7094727,1.7348633-0.9438477,2.777832-2.2211914c-0.2724609-0.105957-1.09375-0.4257813-1.0068359-0.8286133
				c0.2041016-0.5429688,0.9838867-0.6132813,1.4755859-0.9204102c0.7231445-0.590332,1.2753906-1.5600586,1.4365234-2.4931641
				l-1.5878906-0.1210938l-0.9365234-0.1787109l-1.2998047,0.1176758l-1.2788086-0.9370117l-1.8466797-0.097168
				c0.3178711-0.6850586,0.5371094-1.0996094,1.3168945-1.1694336c0.3896484-0.0351563,0.9365234,0.1796875,1.1826172,0.0263672
				c0.5048828-0.1777344,0.4482422-0.6982422,0.8115234-0.9931641c0.6943359-0.8505859,1.7177734-1.0737305,1.8676758-2.1381836
				c1.0668945,0.1665039,1.2998047-0.1162109,1.831543-0.0332031c1.0952148,0.4267578,1.4360352,2.3671875,1.9375,3.3735352
				c-1.3549805-0.4038086-1.0996094,0.7553711-1.1318359,1.6777344c0.4921875-0.3066406,1.0712891-1.0151367,1.5761719-1.1923828
				l1.703125-0.0214844c0.3896484-0.0351563,0.5048828-0.1762695,0.8818359-0.3417969
				c0.8945313-0.2109375,1.4848633,0.3925781,1.9580078,1.1381836c0.4921875-0.3066406,0.4638672-0.5673828,0.1474609-1.0644531
				l0.6494141-0.0585938l-0.3710938-1.0166016c-0.6489258,0.0576172-0.7949219-0.0605469-0.9838867,0.612793
				c-0.5600586-0.3432617-0.5600586-0.3432617-1.2241211-0.4155273l0.4785156-0.4360352l-0.0302734-0.2612305
				c-1.1083984-0.5571289,0.1630859-0.9335938,0.3520508-1.6079102c0.0888672-0.4023438-0.0678711-0.6499023-0.2270508-0.8989258
				l1.6328125-0.6723633c0.6943359-0.8496094,1.284668-0.2460938,1.5761719-1.1923828
				c1.3398438,0.2744141,0.8989258-1.394043,1.9111328-1.7480469c0.2441406-0.1533203,0.6469727-0.0576172,0.9082031-0.081543
				c0.3745117-0.1645508,0.7490234-0.3291016,1.1274414-0.4946289c0.5185547-0.0463867,0.7797852-0.0688477,1.2827148-0.2470703
				c0.4921875-0.3061523,0.9423828-1.003418,1.2905273-1.4282227c0.230957-0.2851563,0.7075195-0.7211914,0.8100586-0.9936523
				c0.0869141-0.4018555-0.0834961-0.7792969-0.1513672-1.4311523c0.5332031,0.0830078,0.9233398,0.0483398,1.2675781-0.3764648
				c0.3632813-0.2954102,0.3066406-0.815918-0.2421875-1.0292969c-0.1289063,0.012207-0.5185547,0.0473633-0.6469727,0.0585938
				l1.793457-1.6064453l0.3520508-1.6083984l-0.5073242,0.1767578l0.1782227-0.8041992l-1.4306641,0.1289063
				c0.230957-0.2836914,0.9272461-1.1342773,1.1582031-1.4179688c0.609375-0.4487305,1.2714844-0.3764648,1.578125-1.1933594
				c-1.2832031,0.2470703-2.8608398,1.4394531-3.6708984,2.4316406l-1.2641602,1.6894531l0.0761719-0.5317383
				c-1.2714844,0.3774414-1.1884766,1.1582031-1.6806641,1.4648438l-0.2456055,0.152832
				c0.3896484-0.034668-2.2211914,0.0683594-1.8164063,0.1640625c-0.6640625-0.0722656-1.3833008-0.6640625-1.9584961-1.1391602
				c-0.4331055-0.3549805-0.7324219-0.7216797-1.2241211-0.4145508l-2.4331055-1.8833008
				c0.2304688-0.2836914,0.3481445-0.4257813,0.0605469-0.6630859c-0.2875977-0.2368164-0.9648438-0.4389648-1.5268555-0.7827148
				c-1.0087891-0.8286133-0.9614258-1.621582-1.0883789-2.7924805c-0.109375-1.0405273-0.2421875-1.0292969-0.5976563-1.9169922
				c-0.1723633-0.3793945-0.2006836-0.6391602-0.503418-1.0063477c-0.3007813-0.3671875-1.0063477-0.8286133-1.4379883-1.1845703
				c-0.5751953-0.4731445-1.2939453-1.065918-1.9580078-1.1381836c-0.9365234-0.1777344-1.659668,0.4125977-2.4692383,0.2216797
				c-0.6772461-0.2016602-1.5537109-1.0424805-2.3745117-1.3632813c-0.5336914-0.0834961-1.1826172-0.0249023-1.703125,0.0214844
				c-0.0283203-0.2602539-0.0849609-0.7802734-0.3574219-0.887207c-0.4165039-0.2250977-1.1694336,0.1049805-1.6879883,0.1513672
				c-0.5200195,0.0463867-0.6923828-0.3320313-1.0952148-0.4277344c-0.4033203-0.0947266-2.2368164-0.0615234-2.4692383,0.2216797
				C414.7543945,241.7041016,414.9282227,242.0825195,414.9550781,242.3427734L414.9550781,242.3427734z M507.7822266,228.7587891
				c1.0634766,1.3496094,2.9628906,3.1499023,4.5634766,3.4008789c-0.4726563-0.746582-0.8779297-0.8408203-1.453125-1.3149414
				C510.0449219,230.2636719,508.6035156,229.0791016,507.7822266,228.7587891L507.7822266,228.7587891z M497.3828125,223.5175781
				l-0.3291016-0.6274414c0.5488281,0.2128906,1.0976563,0.4267578,1.4121094,0.9243164
				c0.1699219,0.378418,0.2001953,0.6386719,0.2421875,1.0292969c0.0830078,0.7807617,1.4492188,2.4975586,2.2402344,2.5571289
				c0.2753906,0.1069336,0.2607422-0.0224609,0.5214844-0.0463867l-0.6699219-2.5673828
				c-0.3027344-0.3671875-0.6767578-0.2016602-1.1230469-0.6870117l-2.7021484-3.1738281
				c-0.1591797-0.2490234-0.7607422-0.9829102-0.6738281-1.3842773c0.2304688-0.2836914,0.8818359-0.3422852,1.1425781-0.3647461
				l-2.4746094-2.2744141c-0.2880859-0.2373047-0.734375-0.7226563-1.2412109-0.5458984
				c-0.5039063,0.1767578-0.6933594,0.8505859-0.9130859,1.2636719c-0.2158203,0.4145508-0.5634766,0.8393555-0.5224609,1.2299805
				c0.1855469,0.5092773,0.7763672,1.112793,1.0761719,1.4794922l2.3046875,1.8950195
				C496.2626953,222.8295898,496.5615234,223.1967773,497.3828125,223.5175781L497.3828125,223.5175781z M531.0585938,223.2543945
				c-0.3408203-1.9404297-1.5898438-3.7983398-3.0537109-5.2431641l-2.3046875-1.8955078
				c-0.8896484-0.9707031-1.8505859-2.5922852-3.1601563-3.7890625c-1.4375-1.1845703-2.5195313-1.4814453-3.7988281-2.4179688
				l-2.1757813-1.9072266l-3.8828125-3.1987305c-1.0068359-0.8286133-2.2021484-2.1674805-2.9628906-3.1494141
				c-0.7763672-1.1132813-0.5566406-1.5268555-1.0029297-2.012207c-0.3027344-0.3671875-1.3964844-0.7949219-1.9296875-0.8779297
				l0.2041016-0.5439453l-0.9648438-0.4389648c0.5371094-1.0991211-0.2158203-0.769043-0.9765625-1.7509766
				c-0.3027344-0.3671875-0.3554688-0.8886719-0.8320313-1.6337891c-0.7460938-0.8525391-1.7412109-1.5517578-2.7177734-2.1201172
				l-4.7373047-2.597168c-1.5292969-0.7822266-3.6191406-1.9091797-5.3330078-2.0175781
				c-1.3134766-0.0136719-2.1533203,0.71875-3.4404297,0.9648438c-1.1533203,0.2353516-3.6474609,0.1967773-4.4462891,1.3188477
				c-0.8095703,0.9921875,1.21875,2.78125,1.953125,3.5039063l2.0546875,2.0483398
				c0.5908203,0.6044922,0.7607422,0.9829102,1.3623047,1.7167969c0.5791016,0.4741211,1.6992188,1.1621094,2.1611328,1.7768555
				c0.4580078,0.6157227-0.3066406,0.8164063,0.3095703,1.6801758c0.4736328,0.7456055,1.6279297,1.6933594,1.9726563,2.4511719
				c0.1855469,0.5087891,0.2685547,1.2895508,0.7001953,1.6455078c0.4160156,0.2250977,0.9082031-0.0825195,1.2978516-0.1176758
				c0.6357422-0.1879883,2.5019531-1.1435547,3.0615234-0.7993164c0.5605469,0.3432617,2.4746094,2.2734375,2.921875,2.7597656
				c0.2871094,0.2363281,0.8740234,0.8398438,0.7871094,1.2431641c0.0712891,0.6499023-1.9755859-0.0864258-1.4873047,0.7895508
				c0.1582031,0.2490234,1.4111328,0.9243164,1.8427734,1.2802734l1.5966797,1.4331055l1.8544922,1.409668
				c0.4316406,0.355957,0.9042969,1.1010742,1.3242188,1.3266602c0.8212891,0.3203125,1.2412109-0.6367188,1.9492188-0.175293
				c1.3808594,0.6640625,2.3720703,2.546875,3.8105469,3.730957c0.9765625,0.5688477,1.2216797,0.4155273,2.0429688,0.7363281
				c0.6923828,0.3320313,1.1396484,0.8173828,1.8427734,1.2797852c1.109375,0.5571289,1.2001953,0.1552734,2.4941406,1.2216797
				c1.7255859,1.4208984,3.1943359,2.8662109,4.6738281,4.4414063c0.5898438,0.6035156,2.0429688,1.918457,2.7207031,2.1201172
				c0.1289063-0.0112305,0.2568359-0.0224609,0.3896484-0.034668l1.4873047-0.7900391c0,0,0.1328125-0.0126953,0.1171875-0.1420898
				c0.0869141-0.4018555,0.0302734-0.9223633,0.1171875-1.324707c0.0908203-0.4018555,0.3369141-0.5551758,0.4091797-1.0878906
				c0.0869141-0.4008789,0.0039063-1.1826172,0.3779297-1.347168
				C530.0673828,222.5551758,530.7861328,223.1474609,531.0585938,223.2543945L531.0585938,223.2543945z M499.3583984,189.4448242
				c-0.0566406-0.5205078-0.2001953-0.6386719-0.3857422-1.1474609c-0.7763672-1.112793-1.6386719-1.8232422-2.8652344-2.2397461
				c-0.4003906-0.0942383-1.6113281-0.3803711-1.8310547,0.0332031c-0.3330078,0.5551758,1.078125,1.4804688,1.4941406,1.7055664
				c0.4316406,0.3549805,0.9804688,0.5688477,1.4121094,0.9248047
				C498.0185547,189.1713867,498.4199219,189.2666016,499.3583984,189.4448242L499.3583984,189.4448242z M448.4790039,178.5083008
				c1.7182617,0.1079102,2.3652344,0.050293,4.0073242,0.6904297c1.4985352,0.5224609,2.3764648,1.3632813,4.0947266,1.472168
				l-1.9262695-2.0605469l1.0976563-0.7548828c-0.5751953-0.4741211-0.8325195-0.4511719-1.3964844-0.7944336
				c-0.2875977-0.2368164-0.3139648-0.4975586-0.6015625-0.734375c-0.2612305,0.0239258-0.9121094,0.081543-1.1694336,0.1049805
				c-0.7680664,0.199707-1.4003906,0.3891602-2.2817383,0.7304688
				C449.534668,177.3618164,448.5131836,177.5849609,448.4790039,178.5083008L448.4790039,178.5083008z M456.3540039,174.9116211
				c-0.1894531,0.6733398-0.8251953,0.8618164-1.434082,1.3100586c0.1435547,0.1181641,0.1586914,0.2490234,0.3027344,0.3671875
				c0.4199219,0.2250977,2.5541992,0.559082,3.0878906,0.6430664c1.3129883,0.0136719,1.3583984-0.7783203,2.9023438-1.0488281
				l1.9335938-0.3046875c1.8164063-0.1635742,4.2988281-0.2543945,5.918457-1.0566406
				c-0.6166992-0.8637695-1.0063477-0.8300781-1.956543-1.1381836c-1.4868164-0.3925781-3.0727539-0.5126953-4.5898438,0.0170898
				c-1.4003906,0.3886719-1.34375,0.9091797-3.1635742,1.0727539L456.3540039,174.9116211L456.3540039,174.9116211z
				 M428.7670898,397.5727539C398.4331055,391.0961914,434.9375,398.8579102,428.7670898,397.5727539L428.7670898,397.5727539z"/>
		</g>
	</g>
</svg>
